<svg width="1045" height="1146" viewBox="0 0 1045 1146" fill="none" xmlns="http://www.w3.org/2000/svg">
<path fill-rule="evenodd" clip-rule="evenodd" d="M12.8 1105.6L0 1145.6L224 1140.8L920 1145.6L1044.8 804.8H1003.2C965.867 901.867 917.867 976 859.2 1027.2C800.533 1078.4 725.333 1104 633.6 1104H513.6C454.933 1104 413.867 1097.6 390.4 1084.8C368.587 1071.91 356.912 1051.65 355.375 1024.01C369.906 1025.34 384.831 1026 400.152 1026C445.752 1026 485.352 1020 518.952 1008C552.552 995.2 579.752 983.6 600.552 973.2C610.151 968.4 618.552 964.4 625.752 961.2C633.752 958 640.552 956.4 646.152 956.4C656.552 956.4 663.752 961.2 667.752 970.8C672.552 979.6 676.552 989.2 679.752 999.6L683.352 1012.8H712.152L708.552 872.4L710.952 726H682.151C677.352 774 662.952 818 638.952 858C615.752 898 584.952 930 546.552 954C508.152 978 462.952 990 410.952 990C392.254 990 374.567 988.845 357.89 986.536C359.19 978.255 360.96 969.41 363.2 960C369.6 937.6 377.6 912 387.2 883.2L594.068 250.338C638.559 295.817 666.721 359.572 678.552 441.6H708.552L706.152 301.2L708.552 160.8H678.552C676.952 177.6 673.352 189.6 667.752 196.8C662.151 203.2 654.952 206.4 646.152 206.4C642.952 206.4 636.952 204.8 628.152 201.6C623.279 199.385 618.162 197.048 612.799 194.588C624.735 162.046 637.002 136.117 649.6 116.8C665.6 92.2667 685.867 74.6667 710.4 64C734.933 53.3334 766.4 46.4 804.8 43.2L838.4 40.0001L851.2 0L612.8 4.80003L374.4 0L361.6 40.0001L392 43.2C435.733 47.4667 466.667 53.3334 484.8 60.8001C502.933 67.2001 512 80.0001 512 99.2001C512 109.867 508.8 124.267 502.4 142.4L499.012 152.695C473.014 146.898 442.46 144 407.352 144C352.152 144 300.152 155.2 251.352 177.6C203.352 199.2 160.952 230 124.152 270C87.3515 310 58.5515 356.8 37.7515 410.4C16.9515 464 6.5515 522.8 6.5515 586.8C6.5515 672.4 22.1515 748.4 53.3515 814.8C85.3515 880.4 130.552 932 188.952 969.6C200.179 976.731 211.81 983.186 223.843 988.965L216 1012.8C208.533 1035.2 198.933 1052.27 187.2 1064C175.467 1074.67 158.4 1082.67 136 1088C114.667 1093.33 84.8 1098.13 46.4 1102.4L12.8 1105.6ZM240.33 938.86L487.057 189.029C463.642 183.01 438.274 180 410.952 180C358.152 180 313.751 190.8 277.752 212.4C241.752 233.2 212.952 262.4 191.352 300C169.752 336.8 153.752 380 143.352 429.6C133.752 478.4 128.952 530.8 128.952 586.8C128.952 670.8 137.751 742.8 155.352 802.8C173.172 860.91 201.498 906.264 240.33 938.86Z" fill="#93764b"/>
</svg>
