<svg width="289" height="215" viewBox="0 0 289 215" fill="none" xmlns="http://www.w3.org/2000/svg">
<path fill-rule="evenodd" clip-rule="evenodd" d="M71.572 97.2517L70.4055 164.081L1.34196 161.669L1.20265 165.658L70.3358 168.073L69.8627 195.177L75.8495 195.281L76.3208 168.282L225.545 173.493V195.201H229.537V173.632L288.197 175.681L288.336 171.691L229.537 169.638V96.891L277.325 56.7919L274.759 53.7339L226.05 94.6059H148.724L77.6285 93.3649L78.7287 30.337H160.079V30.0916L160.261 30.2742L185.704 4.83143L182.882 2.00876L158.545 26.3451H78.7983L79.2564 0.104501L73.2695 0L71.6416 93.2604L0.0696676 92.0111L0 96.0024L71.572 97.2517ZM225.545 99.9393V169.498L76.3905 164.29L77.5372 98.5977H148.689L225.545 99.9393ZM62.2174 30.512V29.452H63.0074V30.512H66.8374V32.672H66.0474V31.222H59.2474V32.672H58.4874V30.512H62.2174ZM61.0256 33.292C61.3157 32.7233 61.5891 32.1655 61.8174 31.672L62.5974 31.842C62.378 32.2927 62.1313 32.7875 61.8743 33.292H67.0774V34.002H65.2591C64.9408 35.1277 64.4416 35.9904 63.7621 36.6575C64.8726 37.1122 65.8958 37.6059 66.5974 38.052L66.0374 38.672C65.3423 38.2068 64.2866 37.6761 63.1301 37.1869C62.0549 37.9557 60.6402 38.3926 58.8874 38.672C58.8074 38.492 58.5774 38.162 58.4374 37.992C60.0417 37.7932 61.3324 37.4534 62.3159 36.8559C61.6565 36.5984 60.9846 36.3613 60.3444 36.1628C60.2585 36.3146 60.1759 36.4582 60.0974 36.592L59.3274 36.382C59.7106 35.7521 60.1902 34.8908 60.6578 34.002H58.1974V33.292H61.0256ZM61.509 34.002C61.2258 34.5474 60.9397 35.0856 60.6721 35.5739C61.4126 35.7878 62.2134 36.0579 62.9979 36.3561C63.6579 35.7723 64.1246 35.0072 64.4013 34.002H61.509ZM63.6674 49.382V50.212H62.9374V42.392H66.6674V50.142H65.9074V49.382H63.6674ZM65.9074 48.662H63.6674V43.102H65.9074V48.662ZM60.8474 42.5961C61.4704 42.464 62.0546 42.3088 62.5274 42.132L62.0174 41.552C61.1474 41.912 59.5574 42.212 58.2274 42.392C58.3174 42.562 58.4074 42.812 58.4474 42.982C58.9735 42.9206 59.5393 42.84 60.0974 42.7413V44.412H58.1374V45.112H59.9119C59.4615 46.38 58.6475 47.754 57.8974 48.522C58.0274 48.702 58.2174 49.002 58.2974 49.212C58.9456 48.5206 59.6041 47.3677 60.0974 46.1977V50.642H60.8474V46.2343C61.283 46.7981 61.8397 47.5549 62.0674 47.932L62.5274 47.322C62.2817 47.0101 61.2321 45.7782 60.8474 45.3737V45.112H62.5974V44.412H60.8474V42.5961ZM63.3374 62.272V62.632H62.6474V59.2768C62.449 59.3812 62.2486 59.4762 62.0474 59.562C61.9726 59.4206 61.8217 59.2171 61.6868 59.072H60.6174V60.8618C61.0522 60.7606 61.4976 60.6558 61.9374 60.552L62.0074 61.222C61.2413 61.4121 60.4534 61.6054 59.7239 61.7843L59.7236 61.7843C59.1487 61.9253 58.6102 62.0574 58.1474 62.172L58.0074 61.442C58.1681 61.4095 58.3423 61.3731 58.5274 61.3334V57.892H59.1574V61.1954C59.4066 61.1399 59.668 61.0806 59.9374 61.0189V56.952H58.5274V53.872H61.7774V56.5366C62.5666 55.785 63.2283 54.6468 63.5974 53.452L64.3174 53.622C64.2208 53.914 64.1108 54.2018 63.9895 54.482H65.7974H65.9274L66.0674 54.452L66.5474 54.652C66.2204 55.6968 65.7021 56.5937 65.0685 57.342C65.6931 57.9482 66.4608 58.477 67.3674 58.822C67.2074 58.962 66.9974 59.252 66.8974 59.442C66.7887 59.395 66.682 59.3455 66.5774 59.2936V62.602H65.8574V62.272H63.3374ZM65.8574 61.612H63.3374V59.682H65.8574V61.612ZM66.0995 59.032C65.5337 58.6925 65.036 58.284 64.6056 57.8429C64.1353 58.3098 63.6187 58.7063 63.0807 59.032H66.0995ZM64.5829 56.823C65.0003 56.3171 65.3532 55.7491 65.609 55.132H63.6805C63.6493 55.1921 63.6176 55.2517 63.5854 55.3107C63.8316 55.811 64.1647 56.3311 64.5829 56.823ZM63.2117 55.9368C63.4553 56.3919 63.763 56.8637 64.1355 57.3175C63.4606 57.9992 62.6697 58.5359 61.8674 58.8854V58.402H60.6174V56.952H61.7774V56.6474C61.9554 56.7687 62.192 56.9678 62.2974 57.082C62.6197 56.7598 62.9283 56.3712 63.2117 55.9368ZM61.0774 54.532H59.1974V56.292H61.0774V54.532ZM58.0774 70.362V69.542H67.2274V70.362H58.0774ZM62.3174 82.582V81.892H66.0374H66.1774L66.3074 81.862L66.7974 82.052C66.4502 83.2418 65.863 84.1808 65.1121 84.9107C65.7307 85.3986 66.471 85.766 67.3174 85.992C67.1374 86.142 66.9274 86.442 66.8174 86.642C65.9394 86.3715 65.1794 85.9535 64.5426 85.402C63.7838 85.9828 62.9023 86.3953 61.9574 86.672C61.8774 86.482 61.6974 86.182 61.5474 86.012C62.4432 85.7859 63.2898 85.4104 64.0124 84.8806C63.4707 84.2764 63.0442 83.5527 62.7374 82.722L63.243 82.582H62.3174ZM63.4028 82.582C63.6743 83.2809 64.0669 83.8987 64.5681 84.4186C65.1042 83.913 65.5423 83.3018 65.8406 82.582H63.4028ZM59.5074 80.762H61.8174V80.052H59.5074V78.8998C60.4496 78.6734 61.4794 78.361 62.2174 77.992L61.5774 77.462C61.0313 77.7715 60.0874 78.1058 59.206 78.3443L58.7974 78.212V84.3216C58.495 84.3702 58.2156 84.4142 57.9674 84.452L58.0974 85.192L58.7974 85.0647V86.642H59.5074V84.9354C60.3518 84.7815 61.29 84.6098 62.1974 84.442L62.1674 83.752C61.2623 83.9107 60.333 84.0694 59.5074 84.2057V82.682H61.9074V81.972H59.5074V80.762ZM65.1674 78.542H63.5974V79.312C63.5974 80.132 63.3974 81.122 62.3874 81.752C62.2874 81.612 62.0174 81.342 61.8674 81.242C62.7774 80.692 62.8974 79.962 62.8974 79.292V77.872H63.2374H63.5974H65.1674H65.5874H65.8774V80.342C65.8774 80.532 65.8874 80.642 65.9374 80.682C65.9674 80.712 66.0174 80.722 66.0974 80.722H66.3774C66.4674 80.722 66.5574 80.712 66.5974 80.682C66.6374 80.662 66.6774 80.582 66.6974 80.462C66.7274 80.322 66.7374 80.002 66.7474 79.592C66.8774 79.722 67.1274 79.832 67.3174 79.892C67.2974 80.292 67.2674 80.732 67.2174 80.902C67.1574 81.062 67.0574 81.172 66.9174 81.232C66.8074 81.302 66.6074 81.332 66.4474 81.332H65.9374C65.7374 81.332 65.5074 81.282 65.3674 81.152C65.2274 81.032 65.1674 80.862 65.1674 80.302V78.542ZM116.903 101.332L116.884 102.392L113.155 102.327L113.117 104.486L113.877 104.5L113.902 103.05L120.701 103.168L120.676 104.618L121.466 104.632L121.503 102.472L117.674 102.406L117.692 101.346L116.903 101.332ZM116.464 103.545C116.227 104.034 115.944 104.587 115.644 105.151L112.816 105.101L112.804 105.811L115.264 105.854C114.781 106.735 114.286 107.587 113.892 108.21L114.658 108.434C114.739 108.301 114.824 108.159 114.913 108.009C115.549 108.219 116.217 108.467 116.872 108.736C115.878 109.317 114.582 109.634 112.974 109.805C113.111 109.977 113.335 110.311 113.412 110.492C115.17 110.244 116.592 109.831 117.68 109.082C118.828 109.591 119.874 110.14 120.561 110.617L121.132 110.007C120.438 109.549 119.424 109.037 118.321 108.563C119.012 107.908 119.526 107.054 119.864 105.934L121.682 105.966L121.695 105.256L116.492 105.165C116.758 104.665 117.014 104.175 117.241 103.728L116.464 103.545ZM115.251 107.426C115.527 106.942 115.822 106.409 116.115 105.869L119.007 105.919C118.713 106.92 118.233 107.676 117.562 108.249C116.783 107.937 115.987 107.653 115.251 107.426ZM128.198 110.29L128.212 109.461L130.452 109.5L130.439 110.26L131.199 110.273L131.334 102.524L127.605 102.459L127.468 110.278L128.198 110.29ZM128.225 108.741L130.465 108.78L130.562 103.221L128.322 103.182L128.225 108.741ZM127.199 102.192C126.723 102.36 126.137 102.505 125.511 102.626L125.48 104.442L127.229 104.473L127.217 105.173L125.467 105.142L125.463 105.404C125.84 105.815 126.868 107.065 127.109 107.381L126.638 107.983C126.417 107.602 125.873 106.835 125.448 106.264L125.371 110.671L124.621 110.658L124.699 106.214C124.185 107.376 123.506 108.517 122.846 109.197C122.77 108.985 122.585 108.682 122.458 108.5C123.222 107.745 124.06 106.386 124.532 105.126L122.758 105.095L122.77 104.395L124.73 104.429L124.759 102.759C124.199 102.847 123.632 102.918 123.105 102.97C123.068 102.8 122.982 102.548 122.895 102.377C124.228 102.22 125.823 101.948 126.699 101.603L127.199 102.192ZM137.859 110.879L137.865 110.519L140.385 110.563L140.379 110.893L141.099 110.906L141.157 107.598C141.261 107.651 141.366 107.703 141.474 107.752C141.578 107.564 141.793 107.277 141.955 107.14C141.055 106.779 140.296 106.237 139.682 105.62C140.329 104.883 140.863 103.995 141.208 102.956L140.732 102.748L140.591 102.776L140.461 102.773L138.653 102.742C138.78 102.464 138.895 102.178 138.996 101.888L138.279 101.705C137.889 102.893 137.208 104.02 136.406 104.757L136.452 102.093L133.203 102.037L133.149 105.116L134.559 105.141L134.488 109.207C134.217 109.264 133.955 109.319 133.705 109.37L133.763 106.067L133.133 106.056L133.073 109.497C132.887 109.533 132.712 109.567 132.551 109.596L132.678 110.329C133.143 110.222 133.684 110.099 134.261 109.968L134.269 109.967L134.27 109.966L134.277 109.965C135.005 109.8 135.79 109.622 136.554 109.446L136.496 108.775C136.054 108.871 135.607 108.968 135.17 109.062L135.202 107.272L136.271 107.291C136.403 107.438 136.551 107.644 136.623 107.787C136.826 107.705 137.028 107.613 137.228 107.512L137.169 110.867L137.859 110.879ZM137.877 109.859L140.397 109.903L140.43 107.974L137.911 107.93L137.877 109.859ZM139.211 106.113C139.633 106.561 140.124 106.979 140.684 107.328L137.665 107.275C138.209 106.959 138.732 106.572 139.211 106.113ZM140.261 103.42C139.995 104.032 139.632 104.594 139.206 105.093C138.796 104.594 138.472 104.068 138.235 103.563C138.253 103.531 138.272 103.498 138.29 103.465C138.297 103.453 138.304 103.44 138.31 103.428L138.333 103.386L140.261 103.42ZM138.75 105.579C138.385 105.119 138.086 104.642 137.85 104.183C137.559 104.612 137.244 104.995 136.916 105.312C136.813 105.196 136.58 104.993 136.404 104.868L136.399 105.173L135.239 105.153L135.213 106.602L136.463 106.624L136.455 107.107C137.263 106.772 138.063 106.249 138.75 105.579ZM133.861 102.708L135.741 102.741L135.71 104.501L133.83 104.468L133.861 102.708ZM142.687 105.873L142.673 106.692L151.822 106.852L151.836 106.032L142.687 105.873ZM156.919 106.471L156.907 107.161L157.832 107.177L157.324 107.308C157.617 108.144 158.03 108.875 158.562 109.489C157.83 110.006 156.977 110.367 156.077 110.577C156.224 110.75 156.399 111.053 156.476 111.244C157.425 110.984 158.314 110.587 159.083 110.019C159.71 110.582 160.462 111.013 161.335 111.299C161.449 111.101 161.664 110.805 161.847 110.658C161.004 110.417 160.271 110.037 159.661 109.538C160.424 108.821 161.028 107.893 161.396 106.709L160.909 106.511L160.778 106.538L160.638 106.536L156.919 106.471ZM159.125 109.037C158.633 108.508 158.251 107.884 157.992 107.18L160.43 107.222C160.119 107.937 159.67 108.54 159.125 109.037ZM156.439 105.333L154.129 105.292L154.108 106.502L156.508 106.544L156.495 107.254L154.096 107.212L154.069 108.735C154.897 108.614 155.829 108.471 156.737 108.328L156.755 109.019C155.844 109.171 154.903 109.326 154.056 109.465L154.027 111.171L153.317 111.159L153.344 109.582L152.642 109.697L152.525 108.955C152.774 108.921 153.054 108.882 153.357 108.839L153.464 102.73L153.87 102.87C154.755 102.647 155.705 102.329 156.256 102.029L156.887 102.57C156.143 102.926 155.108 103.22 154.162 103.43L154.142 104.582L156.451 104.623L156.439 105.333ZM158.269 102.474L157.909 102.468L157.569 102.462L157.544 103.882C157.533 104.552 157.4 105.279 156.48 105.813C156.629 105.916 156.894 106.191 156.991 106.332C158.012 105.72 158.23 104.734 158.244 103.914L158.257 103.144L159.827 103.171L159.796 104.931C159.787 105.491 159.844 105.662 159.981 105.784C160.119 105.917 160.348 105.971 160.548 105.974L161.058 105.983C161.218 105.986 161.419 105.96 161.53 105.891C161.671 105.834 161.773 105.726 161.836 105.567C161.888 105.398 161.926 104.958 161.953 104.559C161.764 104.495 161.516 104.381 161.388 104.249C161.371 104.659 161.356 104.978 161.323 105.118C161.301 105.237 161.26 105.317 161.219 105.336C161.179 105.365 161.089 105.374 160.999 105.372L160.719 105.367C160.639 105.366 160.589 105.355 160.56 105.324C160.51 105.284 160.502 105.173 160.505 104.983L160.549 102.514L160.259 102.509L159.839 102.501L158.269 102.474ZM165.365 103.206C165.664 103.213 165.961 103.275 166.257 103.392C166.554 103.508 166.823 103.698 167.064 103.96C167.306 104.22 167.497 104.573 167.639 105.018C167.78 105.463 167.845 106.019 167.833 106.687C167.822 107.333 167.751 107.906 167.619 108.406C167.489 108.903 167.307 109.321 167.071 109.661C166.838 110 166.557 110.255 166.227 110.427C165.899 110.599 165.531 110.681 165.121 110.674C164.714 110.667 164.352 110.58 164.036 110.414C163.721 110.245 163.465 110.014 163.266 109.722C163.07 109.427 162.947 109.088 162.897 108.703L163.763 108.718C163.836 109.054 163.986 109.332 164.214 109.554C164.445 109.773 164.752 109.886 165.135 109.893C165.696 109.903 166.143 109.666 166.476 109.181C166.811 108.697 166.986 108.008 167.002 107.113L166.945 107.112C166.809 107.308 166.649 107.477 166.464 107.618C166.279 107.76 166.075 107.867 165.851 107.942C165.627 108.016 165.39 108.051 165.139 108.046C164.722 108.039 164.342 107.929 163.997 107.717C163.655 107.503 163.384 107.213 163.182 106.847C162.982 106.479 162.886 106.061 162.894 105.592C162.902 105.147 163.009 104.742 163.214 104.376C163.422 104.008 163.709 103.717 164.075 103.503C164.443 103.289 164.873 103.19 165.365 103.206ZM165.352 103.987C165.054 103.982 164.784 104.052 164.542 104.197C164.303 104.339 164.111 104.535 163.967 104.783C163.825 105.029 163.752 105.304 163.747 105.607C163.741 105.91 163.803 106.187 163.931 106.438C164.062 106.686 164.242 106.886 164.471 107.037C164.703 107.185 164.968 107.262 165.266 107.267C165.491 107.271 165.701 107.231 165.897 107.147C166.093 107.06 166.264 106.941 166.411 106.79C166.56 106.636 166.678 106.462 166.765 106.267C166.851 106.07 166.896 105.863 166.9 105.648C166.905 105.364 166.841 105.096 166.708 104.845C166.577 104.594 166.394 104.39 166.157 104.232C165.923 104.074 165.655 103.992 165.352 103.987ZM171.531 110.786C170.996 110.777 170.543 110.623 170.172 110.326C169.801 110.026 169.52 109.596 169.331 109.036C169.142 108.474 169.055 107.797 169.068 107.007C169.082 106.221 169.193 105.552 169.402 104.999C169.613 104.444 169.909 104.023 170.29 103.736C170.674 103.446 171.131 103.306 171.662 103.316C172.192 103.325 172.642 103.481 173.014 103.783C173.387 104.083 173.669 104.515 173.858 105.077C174.049 105.636 174.138 106.309 174.124 107.095C174.111 107.886 173.999 108.559 173.791 109.114C173.582 109.667 173.287 110.086 172.906 110.373C172.524 110.658 172.066 110.796 171.531 110.786ZM171.545 110.005C172.075 110.014 172.491 109.766 172.794 109.26C173.096 108.754 173.256 108.027 173.272 107.08C173.283 106.451 173.225 105.913 173.098 105.468C172.973 105.023 172.787 104.683 172.54 104.446C172.296 104.21 171.998 104.089 171.648 104.083C171.123 104.074 170.707 104.326 170.403 104.839C170.098 105.35 169.937 106.077 169.92 107.022C169.909 107.651 169.966 108.187 170.091 108.63C170.216 109.073 170.401 109.411 170.645 109.645C170.892 109.879 171.192 109.999 171.545 110.005ZM175.863 103.551L175.851 104.221L177.801 104.255L177.778 105.605L175.208 105.56L175.196 106.24L177.675 106.283C177.046 107.251 176.055 108.053 174.976 108.557C175.143 108.699 175.418 108.994 175.536 109.126C176.142 108.797 176.742 108.37 177.278 107.864L177.236 110.246C177.22 111.186 177.596 111.413 178.936 111.436L181.895 111.488C183.035 111.508 183.311 111.182 183.453 109.925C183.244 109.871 182.926 109.765 182.748 109.632C182.66 110.641 182.557 110.809 181.878 110.797L178.948 110.746C178.118 110.732 177.96 110.649 177.966 110.259L177.979 109.539L181.918 109.608L181.951 107.738C182.513 108.335 183.175 108.84 183.856 109.162C183.98 108.964 184.225 108.668 184.408 108.521C183.359 108.104 182.326 107.27 181.714 106.354L184.295 106.399L184.307 105.719L181.677 105.673L181.7 104.323L183.73 104.359L183.742 103.689L181.712 103.653L181.733 102.464L180.983 102.45L180.962 103.64L178.553 103.598L178.573 102.408L177.834 102.395L177.813 103.585L175.863 103.551ZM178.517 105.618L178.541 104.268L180.951 104.31L180.927 105.66L178.517 105.618ZM178.543 106.298L180.922 106.34C181.093 106.649 181.296 106.952 181.523 107.241L178.02 107.179L177.923 107.178C178.153 106.901 178.362 106.607 178.543 106.298ZM181.229 107.866L178.009 107.809L177.99 108.899L181.21 108.955L181.229 107.866ZM118.998 154.9L119.035 153.84L119.825 153.868L119.788 154.927L123.615 155.061L123.54 157.219L122.75 157.192L122.801 155.743L116.005 155.505L115.954 156.955L115.195 156.928L115.27 154.769L118.998 154.9ZM117.71 157.636C118.02 157.078 118.312 156.53 118.558 156.045L119.331 156.242C119.096 156.685 118.832 157.171 118.558 157.666L123.758 157.847L123.733 158.557L121.916 158.494C121.559 159.607 121.03 160.452 120.327 161.095C121.421 161.588 122.427 162.118 123.112 162.588L122.531 163.188C121.852 162.699 120.816 162.131 119.677 161.602C118.576 162.333 117.147 162.72 115.385 162.938C115.312 162.756 115.093 162.418 114.959 162.243C116.569 162.1 117.871 161.806 118.875 161.243C118.225 160.963 117.562 160.702 116.929 160.482C116.838 160.63 116.75 160.771 116.667 160.902L115.905 160.665C116.31 160.049 116.819 159.205 117.317 158.333L114.859 158.247L114.883 157.538L117.71 157.636ZM118.168 158.363C117.866 158.898 117.561 159.426 117.277 159.904C118.01 160.144 118.8 160.442 119.574 160.767C120.254 160.207 120.747 159.459 121.059 158.464L118.168 158.363ZM130.201 162.165L130.172 162.994L129.443 162.969L129.716 155.154L133.443 155.284L133.173 163.029L132.413 163.003L132.44 162.243L130.201 162.165ZM132.465 161.524L130.226 161.445L130.42 155.889L132.659 155.967L132.465 161.524ZM127.62 155.285C128.247 155.175 128.836 155.04 129.315 154.88L128.826 154.282C127.944 154.612 126.344 154.856 125.009 154.989C125.093 155.162 125.174 155.415 125.208 155.587C125.736 155.544 126.304 155.483 126.865 155.404L126.807 157.073L124.848 157.005L124.824 157.705L126.597 157.766C126.103 159.018 125.241 160.363 124.465 161.104C124.588 161.289 124.768 161.595 124.84 161.808C125.512 161.139 126.211 160.01 126.745 158.858L126.589 163.3L127.339 163.326L127.493 158.921C127.908 159.499 128.438 160.275 128.653 160.66L129.134 160.066C128.899 159.746 127.893 158.478 127.523 158.061L127.532 157.799L129.281 157.86L129.305 157.161L127.556 157.1L127.62 155.285ZM139.834 163.392L139.822 163.752L139.132 163.728L139.249 160.374C139.047 160.472 138.844 160.56 138.64 160.638C138.57 160.495 138.426 160.286 138.296 160.136L137.228 160.099L137.165 161.888C137.603 161.802 138.052 161.712 138.495 161.624L138.542 162.296C137.774 162.458 136.984 162.623 136.252 162.776L136.236 162.779L136.215 162.784C135.818 162.866 135.439 162.945 135.09 163.019C134.937 163.051 134.791 163.081 134.651 163.111L134.537 162.376C134.698 162.35 134.874 162.319 135.06 162.286L135.18 158.847L135.81 158.869L135.694 162.17C135.945 162.123 136.209 162.073 136.48 162.021L136.622 157.956L135.213 157.907L135.32 154.829L138.568 154.943L138.475 157.606C139.29 156.882 139.991 155.768 140.402 154.586L141.116 154.781C141.009 155.07 140.889 155.354 140.758 155.629L142.565 155.692L142.695 155.697L142.836 155.672L143.308 155.889C142.945 156.921 142.396 157.8 141.736 158.525C142.339 159.153 143.088 159.708 143.982 160.085C143.817 160.219 143.597 160.501 143.491 160.688C143.384 160.637 143.279 160.584 143.176 160.528L143.061 163.835L142.341 163.81L142.353 163.48L139.834 163.392ZM142.376 162.82L139.857 162.732L139.925 160.803L142.443 160.891L142.376 162.82ZM142.708 160.25C142.154 159.891 141.671 159.466 141.256 159.01C140.77 159.46 140.24 159.838 139.691 160.145L142.708 160.25ZM141.269 157.99C141.704 157.499 142.076 156.943 142.354 156.335L140.426 156.268C140.393 156.327 140.359 156.386 140.325 156.443C140.554 156.952 140.868 157.484 141.269 157.99ZM139.93 157.056C140.157 157.519 140.448 158.002 140.805 158.468C140.107 159.126 139.297 159.635 138.483 159.956L138.5 159.473L137.251 159.429L137.302 157.98L138.461 158.021L138.472 157.716C138.645 157.844 138.875 158.051 138.976 158.169C139.309 157.858 139.631 157.48 139.93 157.056ZM137.846 155.578L135.967 155.512L135.906 157.271L137.784 157.337L137.846 155.578ZM144.708 159.65L144.736 158.83L153.881 159.15L153.852 159.969L144.708 159.65ZM158.932 160.367L158.956 159.677L162.673 159.807L162.813 159.812L162.944 159.786L163.427 159.993C163.039 161.17 162.419 162.088 161.643 162.791C162.244 163.301 162.971 163.694 163.809 163.949C163.624 164.093 163.404 164.385 163.287 164.581C162.419 164.28 161.674 163.836 161.057 163.262C160.278 163.816 159.383 164.198 158.429 164.441C158.356 164.249 158.186 163.943 158.042 163.768C158.945 163.573 159.805 163.227 160.545 162.723C160.025 162.1 159.624 161.362 159.346 160.521L159.857 160.399L158.932 160.367ZM160.016 160.404C160.263 161.112 160.634 161.743 161.117 162.281C161.67 161.794 162.129 161.198 162.453 160.489L160.016 160.404ZM156.187 158.45L158.495 158.53L158.52 157.821L156.212 157.74L156.252 156.588C157.201 156.395 158.241 156.119 158.992 155.776L158.371 155.224C157.814 155.514 156.859 155.815 155.97 156.023L155.566 155.876L155.353 161.982C155.049 162.02 154.768 162.054 154.519 162.084L154.623 162.828L155.327 162.725L155.272 164.301L155.982 164.326L156.041 162.62C156.89 162.496 157.834 162.357 158.747 162.221L158.741 161.531C157.831 161.658 156.896 161.784 156.067 161.891L156.12 160.368L158.518 160.452L158.543 159.743L156.145 159.659L156.187 158.45ZM160.015 155.691L160.375 155.704L161.944 155.759L162.364 155.773L162.654 155.784L162.568 158.252C162.561 158.442 162.567 158.552 162.616 158.594C162.645 158.625 162.694 158.637 162.774 158.64L163.054 158.649C163.144 158.652 163.234 158.646 163.275 158.617C163.316 158.598 163.359 158.52 163.383 158.401C163.418 158.262 163.439 157.942 163.463 157.533C163.589 157.667 163.835 157.786 164.022 157.853C163.988 158.252 163.943 158.69 163.887 158.859C163.822 159.016 163.718 159.123 163.576 159.178C163.463 159.244 163.263 159.267 163.103 159.261L162.593 159.244C162.393 159.237 162.165 159.179 162.03 159.044C161.894 158.919 161.84 158.747 161.859 158.187L161.921 156.428L160.352 156.374L160.325 157.143C160.296 157.963 160.062 158.945 159.03 159.539C158.935 159.396 158.675 159.117 158.529 159.012C159.457 158.494 159.603 157.768 159.626 157.099L159.676 155.68L160.015 155.691ZM167.442 163.936L167.696 156.667L166.815 156.637L164.956 157.78L164.925 158.674L166.741 157.558L166.783 157.559L166.562 163.905L167.442 163.936ZM170.74 163.909C171.101 164.082 171.516 164.177 171.985 164.194C172.455 164.21 172.879 164.135 173.254 163.968C173.629 163.801 173.929 163.565 174.153 163.26C174.379 162.953 174.499 162.602 174.513 162.207C174.529 161.746 174.414 161.354 174.167 161.033C173.92 160.709 173.568 160.502 173.112 160.41L173.114 160.353C173.484 160.255 173.781 160.065 174.004 159.784C174.229 159.502 174.349 159.157 174.364 158.748C174.376 158.405 174.3 158.082 174.138 157.781C173.976 157.479 173.737 157.232 173.421 157.041C173.106 156.848 172.723 156.743 172.274 156.728C171.855 156.713 171.468 156.78 171.112 156.929C170.758 157.078 170.469 157.292 170.244 157.574C170.018 157.852 169.892 158.182 169.864 158.562L170.716 158.592C170.736 158.351 170.819 158.148 170.965 157.983C171.111 157.815 171.295 157.69 171.518 157.607C171.744 157.523 171.982 157.485 172.233 157.494C172.5 157.503 172.73 157.562 172.923 157.671C173.118 157.779 173.267 157.927 173.37 158.113C173.472 158.299 173.519 158.515 173.51 158.761C173.501 159.016 173.431 159.237 173.299 159.421C173.169 159.606 172.993 159.747 172.769 159.844C172.548 159.94 172.293 159.983 172.004 159.973L171.422 159.953L171.395 160.734L171.977 160.754C172.346 160.767 172.656 160.836 172.908 160.961C173.159 161.085 173.348 161.253 173.473 161.464C173.598 161.672 173.656 161.909 173.647 162.177C173.638 162.432 173.562 162.655 173.417 162.844C173.273 163.033 173.079 163.178 172.834 163.278C172.589 163.379 172.31 163.423 171.998 163.413C171.718 163.403 171.466 163.348 171.239 163.247C171.013 163.147 170.832 163.011 170.696 162.838C170.56 162.662 170.486 162.457 170.476 162.222L169.581 162.191C169.587 162.573 169.691 162.912 169.894 163.208C170.099 163.501 170.381 163.735 170.74 163.909ZM177.047 164.122C177.375 164.299 177.747 164.395 178.163 164.41C178.625 164.426 179.04 164.336 179.409 164.14C179.779 163.942 180.073 163.666 180.291 163.311C180.512 162.954 180.631 162.544 180.647 162.08C180.663 161.609 180.577 161.187 180.389 160.813C180.203 160.44 179.939 160.141 179.596 159.918C179.255 159.693 178.863 159.573 178.418 159.558C178.174 159.549 177.939 159.58 177.711 159.65C177.484 159.72 177.293 159.812 177.14 159.925L177.098 159.924L177.428 157.789L180.466 157.895L180.493 157.114L176.717 156.982L176.152 160.544L176.972 160.673C177.127 160.569 177.323 160.487 177.56 160.427C177.796 160.364 178.026 160.337 178.248 160.348C178.558 160.361 178.831 160.444 179.068 160.596C179.304 160.749 179.486 160.953 179.615 161.209C179.746 161.462 179.806 161.747 179.794 162.065C179.784 162.374 179.706 162.65 179.563 162.891C179.422 163.131 179.232 163.316 178.993 163.447C178.756 163.579 178.489 163.639 178.191 163.629C177.819 163.616 177.503 163.498 177.244 163.276C176.986 163.051 176.846 162.774 176.825 162.444L175.973 162.414C175.979 162.784 176.078 163.117 176.269 163.412C176.46 163.708 176.719 163.945 177.047 164.122ZM182.531 157.919L182.554 157.249L184.503 157.317L184.545 156.128L185.284 156.154L185.243 157.343L187.651 157.427L187.693 156.238L188.442 156.264L188.401 157.453L190.43 157.524L190.406 158.194L188.377 158.123L188.33 159.472L190.959 159.564L190.935 160.243L188.356 160.153C188.952 161.08 189.97 161.932 191.011 162.367C190.826 162.511 190.575 162.802 190.448 162.998C189.773 162.665 189.12 162.149 188.568 161.541L188.503 163.41L184.565 163.273L184.54 163.992C184.527 164.382 184.684 164.468 185.513 164.497L188.441 164.599C189.121 164.623 189.227 164.456 189.332 163.449C189.507 163.586 189.824 163.697 190.032 163.754C189.868 165.009 189.587 165.329 188.447 165.29L185.489 165.186C184.15 165.14 183.778 164.906 183.811 163.967L183.894 161.586C183.349 162.082 182.741 162.499 182.13 162.818C182.014 162.683 181.745 162.384 181.58 162.238C182.668 161.754 183.672 160.969 184.319 160.012L181.84 159.926L181.864 159.246L184.433 159.336L184.48 157.987L182.531 157.919ZM185.219 158.013L185.172 159.362L187.581 159.446L187.628 158.097L185.219 158.013ZM187.564 160.126L185.186 160.043C184.999 160.348 184.786 160.638 184.551 160.911L184.648 160.914L188.149 161.037C187.927 160.744 187.729 160.437 187.564 160.126ZM184.626 161.544L187.844 161.656L187.806 162.746L184.588 162.633L184.626 161.544ZM103.89 33.2612V34.3212H100.16V36.4812H100.92V35.0312H107.72V36.4812H108.51V34.3212H104.68V33.2612H103.89ZM103.49 35.4812C103.262 35.9747 102.988 36.5325 102.698 37.1012H99.8702V37.8112H102.33C101.863 38.7 101.383 39.5613 101 40.1912L101.77 40.4012C101.849 40.2675 101.931 40.1238 102.017 39.9721C102.657 40.1705 103.329 40.4076 103.989 40.6651C103.005 41.2626 101.714 41.6024 100.11 41.8012C100.25 41.9712 100.48 42.3012 100.56 42.4812C102.313 42.2018 103.728 41.7649 104.803 40.9961C105.959 41.4853 107.015 42.016 107.71 42.4812L108.27 41.8612C107.569 41.4152 106.545 40.9214 105.435 40.4667C106.114 39.7996 106.613 38.9369 106.932 37.8112H108.75V37.1012H103.547C103.804 36.5967 104.051 36.102 104.27 35.6512L103.49 35.4812ZM102.345 39.3832C102.612 38.8948 102.898 38.3566 103.182 37.8112H106.074C105.797 38.8164 105.331 39.5816 104.671 40.1653C103.886 39.8672 103.085 39.597 102.345 39.3832ZM115.34 42.0212V41.1912H117.58V41.9512H118.34V34.2012H114.61V42.0212H115.34ZM115.34 40.4712H117.58V34.9112H115.34V40.4712ZM114.2 33.9412C113.727 34.118 113.143 34.2733 112.52 34.4053V36.2212H114.27V36.9212H112.52V37.183C112.905 37.5874 113.954 38.8193 114.2 39.1312L113.74 39.7412C113.512 39.3641 112.956 38.6073 112.52 38.0435V42.4512H111.77V38.0069C111.277 39.1769 110.618 40.3298 109.97 41.0212C109.89 40.8112 109.7 40.5112 109.57 40.3312C110.32 39.5632 111.134 38.1892 111.585 36.9212H109.81V36.2212H111.77V34.5505C111.212 34.6492 110.646 34.7298 110.12 34.7912C110.08 34.6212 109.99 34.3712 109.9 34.2012C111.23 34.0212 112.82 33.7212 113.69 33.3612L114.2 33.9412ZM125.01 42.4412V42.0812H127.53V42.4112H128.25V39.1028C128.355 39.1547 128.461 39.2042 128.57 39.2512C128.67 39.0612 128.88 38.7712 129.04 38.6312C128.134 38.2862 127.366 37.7574 126.741 37.1512C127.375 36.4029 127.893 35.506 128.22 34.4612L127.74 34.2612L127.6 34.2912H127.47H125.662C125.784 34.011 125.894 33.7232 125.99 33.4312L125.27 33.2612C124.901 34.456 124.239 35.5943 123.45 36.3459V33.6812H120.2V36.7612H121.61V40.8281C121.341 40.8899 121.079 40.9491 120.83 41.0047V37.7012H120.2V41.1426C120.015 41.1823 119.841 41.2187 119.68 41.2512L119.82 41.9812C120.283 41.8667 120.821 41.7347 121.396 41.5938C122.125 41.4148 122.914 41.2214 123.68 41.0312L123.61 40.3612C123.17 40.465 122.725 40.5698 122.29 40.671V38.8812H123.359C123.494 39.0263 123.645 39.2299 123.72 39.3712C123.921 39.2854 124.122 39.1904 124.32 39.086V42.4412H125.01ZM125.01 41.4212H127.53V39.4912H125.01V41.4212ZM126.278 37.6521C126.709 38.0932 127.206 38.5017 127.772 38.8412H124.753C125.291 38.5155 125.808 38.119 126.278 37.6521ZM127.282 34.9412C127.026 35.5583 126.673 36.1263 126.256 36.6322C125.837 36.1404 125.504 35.6202 125.258 35.1199C125.29 35.0609 125.322 35.0013 125.353 34.9412H127.282ZM125.808 37.1267C125.436 36.6729 125.128 36.2011 124.884 35.746C124.601 36.1804 124.292 36.569 123.97 36.8912C123.865 36.777 123.628 36.5779 123.45 36.4566V36.7612H122.29V38.2112H123.54V38.6946C124.342 38.3451 125.133 37.8084 125.808 37.1267ZM120.87 34.3412H122.75V36.1012H120.87V34.3412ZM129.75 37.3512V38.1712H138.9V37.3512H129.75ZM143.99 37.7012V38.3912H144.916L144.41 38.5312C144.717 39.3619 145.143 40.0856 145.685 40.6898C144.962 41.2196 144.116 41.5951 143.22 41.8212C143.37 41.9912 143.55 42.2912 143.63 42.4812C144.575 42.2045 145.457 41.792 146.215 41.2112C146.852 41.7627 147.612 42.1807 148.49 42.4512C148.6 42.2512 148.81 41.9512 148.99 41.8012C148.144 41.5752 147.403 41.2078 146.785 40.72C147.536 39.99 148.123 39.051 148.47 37.8612L147.98 37.6712L147.85 37.7012H147.71H143.99ZM146.241 40.2278C145.74 39.7079 145.347 39.0902 145.076 38.3912H147.513C147.215 39.111 146.777 39.7223 146.241 40.2278ZM143.49 36.5712H141.18V37.7812H143.58V38.4912H141.18V40.0149C142.006 39.8786 142.935 39.7199 143.84 39.5612L143.87 40.2512C142.963 40.419 142.024 40.5907 141.18 40.7446V42.4512H140.47V40.8739L139.77 41.0012L139.64 40.2612C139.888 40.2234 140.168 40.1794 140.47 40.1308V34.0212L140.879 34.1535C141.76 33.915 142.704 33.5807 143.25 33.2712L143.89 33.8012C143.152 34.1702 142.122 34.4826 141.18 34.709V35.8612H143.49V36.5712ZM145.27 34.3512H146.84V36.1112C146.84 36.6712 146.9 36.8412 147.04 36.9612C147.18 37.0912 147.41 37.1412 147.61 37.1412H148.12C148.28 37.1412 148.48 37.1112 148.59 37.0412C148.73 36.9812 148.83 36.8712 148.89 36.7112C148.94 36.5412 148.97 36.1012 148.99 35.7012C148.8 35.6412 148.55 35.5312 148.42 35.4012C148.41 35.8112 148.4 36.1312 148.37 36.2712C148.35 36.3912 148.31 36.4712 148.27 36.4912C148.23 36.5212 148.14 36.5312 148.05 36.5312H147.77C147.69 36.5312 147.64 36.5212 147.61 36.4912C147.56 36.4512 147.55 36.3412 147.55 36.1512V33.6812H147.26H146.84H145.27H144.91H144.57V35.1012C144.57 35.7712 144.45 36.5012 143.54 37.0512C143.69 37.1512 143.96 37.4212 144.06 37.5612C145.07 36.9312 145.27 35.9412 145.27 35.1212V34.3512ZM152.62 34.3885V41.6612H151.739V35.3118H151.697L149.921 36.4907V35.5959L151.739 34.3885H152.62ZM157.268 34.3885V41.6612H156.388V35.3118H156.345L154.569 36.4907V35.5959L156.388 34.3885H157.268ZM159.587 41.6612L162.84 35.2265V35.1697H159.09V34.3885H163.749V35.2123L160.51 41.6612H159.587ZM165.4 34.4512V35.1212H167.35V36.4712H164.78V37.1512H167.26C166.647 38.1297 165.671 38.9492 164.6 39.4712C164.77 39.6112 165.05 39.9012 165.17 40.0312C165.77 39.6912 166.362 39.2537 166.89 38.7387V41.1212C166.89 42.0612 167.27 42.2812 168.61 42.2812H171.57C172.71 42.2812 172.98 41.9512 173.1 40.6912C172.89 40.6412 172.57 40.5412 172.39 40.4112C172.32 41.4212 172.22 41.5912 171.54 41.5912H168.61C167.78 41.5912 167.62 41.5112 167.62 41.1212V40.4012H171.56V38.5309C172.133 39.1186 172.803 39.6117 173.49 39.9212C173.61 39.7212 173.85 39.4212 174.03 39.2712C172.975 38.8721 171.927 38.0562 171.299 37.1512H173.88V36.4712H171.25V35.1212H173.28V34.4512H171.25V33.2612H170.5V34.4512H168.09V33.2612H167.35V34.4512H165.4ZM168.09 36.4712V35.1212H170.5V36.4712H168.09ZM167.523 38.0412C167.748 37.7601 167.952 37.4627 168.127 37.1512H170.507C170.683 37.4568 170.891 37.7562 171.123 38.0412H167.62H167.523ZM170.84 38.6712H167.62V39.7612H170.84V38.6712ZM237.171 98.1966V97.5866H241.801V98.1966H237.171ZM237.051 100.977V100.357H241.981V100.977H237.051ZM237.051 102.367V101.747H241.961V102.367H237.051ZM237.671 105.837V106.307H236.951V103.137H242.071V106.277H241.321V105.837H237.671ZM241.321 105.217H237.671V103.747H241.321V105.217ZM236.231 99.5966V98.9666H242.741V99.5966H236.231ZM233.321 101.097C234.331 100.147 235.311 98.6566 235.891 97.1366L236.601 97.3566C236.317 98.062 235.965 98.7658 235.571 99.427V106.287H234.851V100.521C234.495 101.011 234.12 101.457 233.741 101.837C233.671 101.667 233.461 101.277 233.321 101.097ZM234.111 110.757V110.167H236.176C236.039 109.901 235.832 109.585 235.631 109.347L236.271 109.117C236.571 109.417 236.851 109.847 236.981 110.137L236.907 110.167H239.298C239.506 109.866 239.752 109.403 239.891 109.087L240.681 109.297C240.489 109.603 240.274 109.916 240.085 110.167H242.161V110.757H238.501V111.377H241.621V111.937H238.501V112.577H242.581V113.177H233.681V112.577H237.731V111.937H234.651V111.377H237.731V110.757H234.111ZM233.671 115.397V114.807H235.801V114.115C235.183 114.18 234.552 114.228 233.971 114.257C233.951 114.107 233.861 113.897 233.791 113.757C235.161 113.677 236.801 113.497 237.701 113.277L238.161 113.747C237.7 113.856 237.135 113.951 236.531 114.029V114.807H238.722C238.623 114.346 238.558 113.853 238.531 113.337H239.251C239.276 113.86 239.346 114.354 239.453 114.807H242.611V115.397H239.621C239.756 115.8 239.922 116.16 240.112 116.467C240.54 116.186 240.907 115.869 241.181 115.517L241.831 115.737C241.478 116.2 241.013 116.609 240.483 116.966C240.865 117.388 241.305 117.624 241.761 117.617C242.041 117.607 242.111 117.377 242.161 116.657C242.321 116.797 242.561 116.907 242.741 116.967C242.631 118.027 242.371 118.307 241.721 118.307C241.015 118.307 240.38 117.954 239.864 117.343C239.155 117.736 238.374 118.05 237.611 118.287C237.541 118.137 237.341 117.827 237.211 117.677C237.999 117.476 238.796 117.191 239.494 116.828C239.243 116.418 239.033 115.935 238.873 115.397H236.531V116.063C237.115 116.018 237.721 115.968 238.321 115.917V116.457C237.723 116.514 237.118 116.571 236.531 116.626V117.567C236.531 117.957 236.431 118.127 236.141 118.217C235.841 118.307 235.371 118.317 234.611 118.317C234.571 118.137 234.471 117.887 234.381 117.717C234.931 117.737 235.461 117.737 235.601 117.727C235.751 117.727 235.801 117.687 235.801 117.547V116.694C235.023 116.766 234.3 116.833 233.701 116.887L233.631 116.277C234.221 116.236 234.974 116.182 235.801 116.12V115.397H233.671ZM241.611 114.707C241.261 114.407 240.571 114.007 240.001 113.777L240.411 113.317C240.981 113.537 241.681 113.897 242.041 114.207L241.611 114.707ZM238.831 129.927V130.287H238.141V126.931C237.942 127.036 237.742 127.131 237.541 127.217C237.466 127.075 237.315 126.872 237.18 126.727H236.111V128.516C236.546 128.415 236.991 128.31 237.431 128.207L237.501 128.877C236.735 129.067 235.946 129.26 235.217 129.439C234.642 129.58 234.104 129.712 233.641 129.827L233.501 129.097C233.661 129.064 233.836 129.028 234.021 128.988V125.547H234.651V128.85C234.9 128.794 235.161 128.735 235.431 128.673V124.607H234.021V121.527H237.271V124.191C238.06 123.44 238.722 122.301 239.091 121.107L239.811 121.277C239.714 121.569 239.604 121.856 239.483 122.137H241.291H241.421L241.561 122.107L242.041 122.307C241.714 123.351 241.195 124.248 240.562 124.997C241.186 125.603 241.954 126.132 242.861 126.477C242.701 126.617 242.491 126.907 242.391 127.097C242.282 127.05 242.175 127 242.071 126.948V130.257H241.351V129.927H238.831ZM241.351 129.267H238.831V127.337H241.351V129.267ZM241.593 126.687C241.027 126.347 240.529 125.939 240.099 125.497C239.629 125.964 239.112 126.361 238.574 126.687H241.593ZM240.076 124.478C240.494 123.972 240.847 123.404 241.102 122.787H239.174C239.143 122.847 239.111 122.906 239.079 122.965C239.325 123.466 239.658 123.986 240.076 124.478ZM238.705 123.591C238.949 124.046 239.256 124.518 239.629 124.972C238.954 125.654 238.163 126.19 237.361 126.54V126.057H236.111V124.607H237.271V124.302C237.449 124.423 237.685 124.622 237.791 124.737C238.113 124.414 238.422 124.026 238.705 123.591ZM236.571 123.947V122.187H234.691V123.947H236.571ZM234.031 142.027V134.027H242.261V141.947H241.471V141.317H234.781V142.027H234.031ZM234.781 140.587H241.471V134.757H239.431V137.697C239.431 137.897 239.451 138.007 239.511 138.037C239.581 138.067 239.671 138.087 239.781 138.087H240.251C240.381 138.087 240.521 138.077 240.581 138.047C240.651 138.017 240.711 137.947 240.731 137.807C240.771 137.657 240.781 137.327 240.791 136.887C240.931 137.007 241.181 137.137 241.371 137.197C241.351 137.607 241.321 138.077 241.251 138.257C241.191 138.437 241.081 138.547 240.911 138.627C240.761 138.687 240.501 138.717 240.301 138.717H239.621C239.391 138.717 239.121 138.667 238.951 138.537C238.771 138.407 238.701 138.237 238.701 137.627V134.757H237.388C237.276 136.87 236.956 138.435 235.411 139.347C235.321 139.167 235.101 138.917 234.931 138.797C236.315 138.023 236.569 136.622 236.65 134.757H234.781V140.587ZM237.811 150.237V149.547H241.531H241.671L241.801 149.517L242.291 149.707C241.944 150.896 241.356 151.835 240.605 152.565C241.224 153.053 241.964 153.421 242.811 153.647C242.631 153.797 242.421 154.097 242.311 154.297C241.433 154.026 240.673 153.608 240.036 153.057C239.277 153.637 238.396 154.05 237.451 154.327C237.371 154.137 237.191 153.837 237.041 153.667C237.937 153.44 238.783 153.065 239.506 152.535C238.964 151.931 238.538 151.207 238.231 150.377L238.736 150.237H237.811ZM238.896 150.237C239.168 150.936 239.56 151.553 240.061 152.073C240.598 151.568 241.036 150.956 241.334 150.237H238.896ZM235.001 148.417H237.311V147.707H235.001V146.554C235.943 146.328 236.973 146.016 237.711 145.647L237.071 145.117C236.525 145.426 235.581 145.76 234.699 145.999L234.291 145.867V151.976C233.988 152.025 233.709 152.069 233.461 152.107L233.591 152.847C233.808 152.807 234.043 152.764 234.291 152.719V154.297H235.001V152.59C235.845 152.436 236.783 152.264 237.691 152.097L237.661 151.407C236.756 151.565 235.826 151.724 235.001 151.86V150.337H237.401V149.627H235.001V148.417ZM240.661 146.197H239.091V146.967C239.091 147.787 238.891 148.777 237.881 149.407C237.781 149.267 237.511 148.997 237.361 148.897C238.271 148.347 238.391 147.617 238.391 146.947V145.527H238.731H239.091H240.661H241.081H241.371V147.997C241.371 148.187 241.381 148.297 241.431 148.337C241.461 148.367 241.511 148.377 241.591 148.377H241.871C241.961 148.377 242.051 148.367 242.091 148.337C242.131 148.317 242.171 148.237 242.191 148.117C242.221 147.977 242.231 147.657 242.241 147.247C242.371 147.377 242.621 147.487 242.811 147.547C242.791 147.947 242.761 148.387 242.711 148.557C242.651 148.717 242.551 148.827 242.411 148.887C242.301 148.957 242.101 148.987 241.941 148.987H241.431C241.231 148.987 241.001 148.937 240.861 148.807C240.721 148.687 240.661 148.517 240.661 147.957V146.197ZM235.856 164.867V165.507H240.444V164.725H237.064V164.669L238.697 162.921C239.114 162.474 239.439 162.095 239.674 161.785C239.91 161.472 240.076 161.19 240.171 160.936C240.268 160.681 240.317 160.419 240.317 160.151C240.317 159.777 240.223 159.438 240.036 159.132C239.849 158.827 239.591 158.584 239.262 158.404C238.933 158.224 238.555 158.134 238.129 158.134C237.705 158.134 237.323 158.224 236.982 158.404C236.643 158.584 236.376 158.835 236.179 159.157C235.983 159.479 235.885 159.853 235.885 160.279H236.723C236.723 160.002 236.778 159.761 236.89 159.555C237.003 159.349 237.163 159.189 237.369 159.075C237.577 158.959 237.821 158.901 238.101 158.901C238.363 158.901 238.6 158.952 238.811 159.054C239.022 159.156 239.187 159.3 239.308 159.487C239.431 159.674 239.493 159.896 239.493 160.151C239.493 160.374 239.448 160.587 239.358 160.791C239.27 160.992 239.135 161.207 238.953 161.437C238.771 161.664 238.539 161.932 238.257 162.24L235.856 164.867ZM236.904 189.365C237.271 189.526 237.689 189.606 238.157 189.606C238.629 189.606 239.049 189.516 239.418 189.336C239.787 189.156 240.079 188.91 240.292 188.597C240.507 188.283 240.615 187.928 240.615 187.532C240.615 187.07 240.486 186.683 240.228 186.371C239.97 186.056 239.611 185.861 239.152 185.785V185.728C239.519 185.617 239.809 185.417 240.022 185.128C240.237 184.839 240.345 184.49 240.345 184.08C240.345 183.737 240.258 183.418 240.086 183.122C239.913 182.826 239.665 182.588 239.343 182.408C239.022 182.226 238.636 182.134 238.186 182.134C237.767 182.134 237.382 182.215 237.032 182.376C236.684 182.537 236.402 182.762 236.187 183.051C235.971 183.337 235.856 183.671 235.842 184.052H236.694C236.706 183.811 236.782 183.605 236.922 183.434C237.061 183.261 237.241 183.13 237.461 183.04C237.684 182.948 237.921 182.901 238.172 182.901C238.439 182.901 238.671 182.952 238.868 183.054C239.067 183.156 239.22 183.298 239.329 183.48C239.438 183.663 239.493 183.877 239.493 184.123C239.493 184.379 239.43 184.601 239.304 184.791C239.181 184.98 239.01 185.127 238.79 185.231C238.572 185.335 238.318 185.387 238.03 185.387H237.447V186.169H238.03C238.399 186.169 238.711 186.227 238.967 186.343C239.223 186.459 239.417 186.62 239.549 186.825C239.682 187.029 239.748 187.265 239.748 187.532C239.748 187.788 239.68 188.013 239.542 188.207C239.405 188.401 239.216 188.553 238.974 188.661C238.733 188.77 238.456 188.825 238.143 188.825C237.864 188.825 237.609 188.779 237.38 188.686C237.15 188.594 236.964 188.464 236.822 188.296C236.68 188.125 236.6 187.923 236.581 187.688H235.686C235.705 188.07 235.821 188.405 236.034 188.693C236.249 188.98 236.539 189.204 236.904 189.365ZM238.974 194.305C238.675 194.194 238.377 194.137 238.079 194.134C237.586 194.127 237.158 194.234 236.793 194.454C236.431 194.674 236.149 194.97 235.948 195.342C235.749 195.711 235.65 196.118 235.65 196.563C235.65 197.032 235.753 197.449 235.959 197.813C236.167 198.176 236.444 198.461 236.79 198.669C237.138 198.875 237.52 198.978 237.937 198.978C238.188 198.978 238.424 198.939 238.647 198.861C238.87 198.783 239.072 198.672 239.254 198.527C239.437 198.383 239.594 198.211 239.727 198.012H239.783C239.783 198.907 239.62 199.6 239.293 200.09C238.969 200.58 238.526 200.825 237.965 200.825C237.582 200.825 237.273 200.717 237.038 200.502C236.806 200.284 236.651 200.008 236.573 199.674H235.707C235.764 200.058 235.893 200.395 236.094 200.686C236.297 200.975 236.558 201.201 236.875 201.365C237.195 201.526 237.558 201.606 237.965 201.606C238.375 201.606 238.742 201.517 239.066 201.34C239.393 201.162 239.67 200.902 239.897 200.558C240.127 200.215 240.302 199.794 240.423 199.294C240.546 198.792 240.607 198.218 240.607 197.572C240.607 196.904 240.533 196.349 240.384 195.906C240.234 195.464 240.037 195.115 239.79 194.859C239.544 194.601 239.272 194.416 238.974 194.305ZM237.273 195.139C237.512 194.99 237.781 194.916 238.079 194.916C238.382 194.916 238.652 194.993 238.889 195.146C239.128 195.3 239.315 195.502 239.45 195.75C239.587 195.999 239.656 196.265 239.656 196.549C239.656 196.765 239.614 196.972 239.531 197.171C239.448 197.367 239.334 197.544 239.187 197.7C239.042 197.854 238.873 197.976 238.679 198.066C238.485 198.153 238.275 198.197 238.05 198.197C237.752 198.197 237.486 198.125 237.251 197.98C237.019 197.834 236.836 197.637 236.701 197.391C236.568 197.142 236.502 196.866 236.502 196.563C236.502 196.26 236.571 195.985 236.708 195.736C236.848 195.485 237.036 195.286 237.273 195.139ZM234.211 206.967V206.297H236.161V205.107H236.901V206.297H239.311V205.107H240.061V206.297H242.091V206.967H240.061V208.317H242.691V208.997H240.11C240.738 209.902 241.785 210.717 242.841 211.117C242.661 211.267 242.421 211.567 242.301 211.767C241.614 211.457 240.944 210.964 240.371 210.376V212.247H236.431V212.967C236.431 213.357 236.591 213.437 237.421 213.437H240.351C241.031 213.437 241.131 213.267 241.201 212.257C241.381 212.387 241.701 212.487 241.911 212.537C241.791 213.797 241.521 214.127 240.381 214.127H237.421C236.081 214.127 235.701 213.907 235.701 212.967V210.584C235.173 211.099 234.581 211.537 233.981 211.877C233.861 211.747 233.581 211.457 233.411 211.317C234.481 210.795 235.458 209.975 236.071 208.997H233.591V208.317H236.161V206.967H234.211ZM236.901 206.967V208.317H239.311V206.967H236.901ZM239.318 208.997H236.938C236.763 209.308 236.559 209.605 236.334 209.887H236.431H239.934C239.702 209.602 239.494 209.302 239.318 208.997ZM236.431 210.517H239.651V211.607H236.431V210.517Z" fill="#c19759"/>
<path d="M144.504 89.556L137.267 71.4639H151.741L144.504 89.556Z" fill="#ffdaa1"/>
<path d="M117.401 65.8786L117.481 65.6286L117.691 65.6086C117.931 65.582 118.118 65.552 118.251 65.5186C118.391 65.4853 118.498 65.4353 118.571 65.3686C118.644 65.2953 118.704 65.1886 118.751 65.0486L120.541 59.6086C120.581 59.4953 120.601 59.4053 120.601 59.3386C120.601 59.2186 120.544 59.1386 120.431 59.0986C120.318 59.052 120.124 59.0153 119.851 58.9886L119.661 58.9686L119.741 58.7186L121.231 58.7486L122.721 58.7186L122.641 58.9686L122.431 58.9886C122.191 59.0086 121.994 59.052 121.841 59.1186C121.688 59.1853 121.561 59.2953 121.461 59.4486C121.361 59.602 121.264 59.822 121.171 60.1086L119.821 64.2386C119.761 64.4186 119.711 64.5786 119.671 64.7186C119.638 64.8586 119.621 64.9786 119.621 65.0786C119.621 65.272 119.694 65.412 119.841 65.4986C119.988 65.5786 120.244 65.6186 120.611 65.6186H121.361C121.934 65.6186 122.404 65.4586 122.771 65.1386C123.138 64.8186 123.438 64.3553 123.671 63.7486H123.931L123.151 65.8786L118.801 65.8486L117.401 65.8786ZM125.976 65.9886C125.622 65.9886 125.332 65.912 125.106 65.7586C124.886 65.5986 124.722 65.392 124.616 65.1386C124.516 64.8786 124.466 64.602 124.466 64.3086C124.466 63.8953 124.546 63.512 124.706 63.1586C124.866 62.7986 125.079 62.482 125.346 62.2086C125.612 61.9286 125.902 61.712 126.216 61.5586C126.536 61.4053 126.856 61.3286 127.176 61.3286C127.489 61.3286 127.736 61.4086 127.916 61.5686C128.102 61.722 128.196 61.9286 128.196 62.1886C128.189 62.582 128.002 62.892 127.636 63.1186C127.276 63.3386 126.789 63.482 126.176 63.5486L125.336 63.6286C125.256 63.9353 125.216 64.2286 125.216 64.5086C125.216 64.702 125.242 64.892 125.296 65.0786C125.356 65.2653 125.452 65.422 125.586 65.5486C125.719 65.6686 125.892 65.7286 126.106 65.7286C126.366 65.7286 126.602 65.6453 126.816 65.4786C127.036 65.3053 127.209 65.1286 127.336 64.9486L127.506 65.0886C127.352 65.302 127.152 65.5053 126.906 65.6986C126.659 65.892 126.349 65.9886 125.976 65.9886ZM127.166 61.5286C126.946 61.5286 126.722 61.6153 126.496 61.7886C126.269 61.962 126.059 62.192 125.866 62.4786C125.672 62.7653 125.519 63.0786 125.406 63.4186L125.966 63.3386C126.319 63.2853 126.602 63.2053 126.816 63.0986C127.036 62.992 127.202 62.872 127.316 62.7386C127.429 62.6053 127.506 62.4786 127.546 62.3586C127.586 62.232 127.606 62.1253 127.606 62.0386C127.606 61.8853 127.572 61.762 127.506 61.6686C127.439 61.5753 127.326 61.5286 127.166 61.5286ZM130.236 65.9886C129.882 65.9886 129.586 65.9153 129.346 65.7686C129.106 65.6153 128.926 65.4153 128.806 65.1686C128.692 64.9153 128.636 64.6453 128.636 64.3586C128.636 63.9586 128.709 63.5786 128.856 63.2186C129.009 62.852 129.216 62.5253 129.476 62.2386C129.742 61.952 130.046 61.7253 130.386 61.5586C130.726 61.392 131.082 61.3086 131.456 61.3086C131.816 61.3086 132.116 61.3853 132.356 61.5386C132.596 61.6853 132.772 61.8786 132.886 62.1186C133.006 62.3586 133.066 62.622 133.066 62.9086C133.066 63.3086 132.989 63.6953 132.836 64.0686C132.689 64.4353 132.482 64.7653 132.216 65.0586C131.956 65.3453 131.656 65.572 131.316 65.7386C130.976 65.9053 130.616 65.9886 130.236 65.9886ZM130.226 65.7686C130.472 65.7686 130.702 65.6986 130.916 65.5586C131.129 65.412 131.322 65.222 131.496 64.9886C131.676 64.7553 131.829 64.4986 131.956 64.2186C132.082 63.9386 132.179 63.662 132.246 63.3886C132.319 63.1086 132.356 62.8553 132.356 62.6286C132.356 61.8953 132.062 61.5286 131.476 61.5286C131.229 61.5286 130.999 61.5986 130.786 61.7386C130.572 61.8786 130.376 62.0653 130.196 62.2986C130.022 62.532 129.872 62.7886 129.746 63.0686C129.619 63.342 129.519 63.6153 129.446 63.8886C129.379 64.162 129.346 64.412 129.346 64.6386C129.346 65.392 129.639 65.7686 130.226 65.7686ZM137.032 65.9886C136.826 65.9886 136.679 65.9386 136.592 65.8386C136.512 65.7386 136.472 65.6086 136.472 65.4486C136.472 65.3486 136.486 65.2386 136.512 65.1186C136.539 64.9986 136.576 64.8753 136.622 64.7486L137.492 62.2886C137.566 62.0753 137.576 61.902 137.522 61.7686C137.469 61.6286 137.346 61.5586 137.152 61.5586C136.972 61.5586 136.782 61.6153 136.582 61.7286C136.382 61.8353 136.189 61.9753 136.002 62.1486C135.816 62.322 135.652 62.5086 135.512 62.7086C135.372 62.9086 135.269 63.0986 135.202 63.2786L134.272 65.8486H133.552L134.792 62.4086C134.906 62.082 134.916 61.882 134.822 61.8086C134.729 61.7286 134.526 61.6886 134.212 61.6886L134.292 61.4486L135.762 61.4186L135.442 62.4886C135.589 62.282 135.759 62.092 135.952 61.9186C136.152 61.7386 136.369 61.592 136.602 61.4786C136.842 61.3653 137.099 61.3086 137.372 61.3086C137.779 61.3086 138.042 61.4153 138.162 61.6286C138.282 61.842 138.272 62.1453 138.132 62.5386L137.232 65.0486C137.186 65.1886 137.159 65.3253 137.152 65.4586C137.152 65.592 137.209 65.6586 137.322 65.6586C137.476 65.6586 137.616 65.5886 137.742 65.4486C137.876 65.302 137.986 65.1553 138.072 65.0086L138.252 65.1286C138.126 65.3353 137.962 65.532 137.762 65.7186C137.562 65.8986 137.319 65.9886 137.032 65.9886ZM139.187 61.1786L139.157 60.8986C139.444 60.8786 139.717 60.7986 139.977 60.6586C140.237 60.512 140.444 60.2953 140.597 60.0086C140.677 59.862 140.717 59.7286 140.717 59.6086C140.717 59.562 140.711 59.5353 140.697 59.5286C140.684 59.5153 140.671 59.5086 140.657 59.5086C140.637 59.5086 140.611 59.5453 140.577 59.6186C140.504 59.792 140.371 59.8786 140.177 59.8786C140.011 59.8786 139.874 59.8253 139.767 59.7186C139.667 59.612 139.617 59.482 139.617 59.3286C139.617 59.1353 139.677 58.9786 139.797 58.8586C139.924 58.732 140.081 58.6686 140.267 58.6686C140.501 58.6686 140.674 58.7453 140.787 58.8986C140.907 59.052 140.967 59.242 140.967 59.4686C140.967 59.6553 140.914 59.862 140.807 60.0886C140.627 60.462 140.394 60.7286 140.107 60.8886C139.827 61.042 139.521 61.1386 139.187 61.1786ZM141.481 65.9886C141.135 65.9886 140.861 65.9286 140.661 65.8086C140.461 65.6886 140.318 65.5453 140.231 65.3786C140.145 65.212 140.101 65.0586 140.101 64.9186C140.101 64.7653 140.141 64.6386 140.221 64.5386C140.308 64.432 140.428 64.3786 140.581 64.3786C140.688 64.3786 140.771 64.412 140.831 64.4786C140.898 64.5453 140.931 64.6286 140.931 64.7286C140.931 64.8353 140.908 64.9286 140.861 65.0086C140.815 65.0886 140.791 65.1853 140.791 65.2986C140.791 65.432 140.851 65.5453 140.971 65.6386C141.091 65.7253 141.245 65.7686 141.431 65.7686C141.638 65.7686 141.808 65.7253 141.941 65.6386C142.081 65.5453 142.188 65.432 142.261 65.2986C142.335 65.1586 142.371 65.022 142.371 64.8886C142.371 64.7353 142.345 64.602 142.291 64.4886C142.238 64.3753 142.138 64.2353 141.991 64.0686L141.621 63.6786C141.475 63.5186 141.365 63.342 141.291 63.1486C141.218 62.9553 141.181 62.7653 141.181 62.5786C141.181 62.372 141.231 62.172 141.331 61.9786C141.431 61.7853 141.581 61.6253 141.781 61.4986C141.981 61.372 142.235 61.3086 142.541 61.3086C142.868 61.3086 143.115 61.352 143.281 61.4386C143.448 61.5253 143.561 61.6253 143.621 61.7386C143.688 61.852 143.721 61.9553 143.721 62.0486C143.721 62.1753 143.681 62.2853 143.601 62.3786C143.521 62.4653 143.415 62.5086 143.281 62.5086C143.201 62.5086 143.121 62.4786 143.041 62.4186C142.968 62.3586 142.931 62.2653 142.931 62.1386C142.931 62.0653 142.931 61.982 142.931 61.8886C142.931 61.7886 142.905 61.7053 142.851 61.6386C142.798 61.5653 142.691 61.5286 142.531 61.5286C142.285 61.5286 142.091 61.6053 141.951 61.7586C141.818 61.912 141.751 62.0853 141.751 62.2786C141.751 62.412 141.778 62.5453 141.831 62.6786C141.885 62.8053 141.971 62.9353 142.091 63.0686L142.471 63.4686C142.598 63.5953 142.725 63.7453 142.851 63.9186C142.978 64.092 143.041 64.322 143.041 64.6086C143.041 64.8353 142.975 65.0553 142.841 65.2686C142.708 65.4753 142.525 65.6486 142.291 65.7886C142.058 65.922 141.788 65.9886 141.481 65.9886ZM148.254 65.9886C147.714 65.9886 147.304 65.832 147.024 65.5186C146.751 65.1986 146.614 64.792 146.614 64.2986C146.614 63.892 146.697 63.5086 146.864 63.1486C147.037 62.7886 147.267 62.472 147.554 62.1986C147.841 61.9186 148.157 61.702 148.504 61.5486C148.857 61.3886 149.214 61.3086 149.574 61.3086C149.907 61.3086 150.151 61.3553 150.304 61.4486C150.464 61.5353 150.567 61.6386 150.614 61.7586C150.667 61.872 150.694 61.972 150.694 62.0586C150.694 62.1853 150.657 62.3053 150.584 62.4186C150.511 62.5253 150.397 62.5786 150.244 62.5786C150.117 62.5786 150.017 62.542 149.944 62.4686C149.871 62.3953 149.834 62.2986 149.834 62.1786C149.834 61.9653 149.827 61.8053 149.814 61.6986C149.801 61.5853 149.701 61.5286 149.514 61.5286C149.241 61.5286 148.977 61.6153 148.724 61.7886C148.471 61.962 148.244 62.192 148.044 62.4786C147.844 62.7586 147.684 63.0653 147.564 63.3986C147.451 63.7253 147.394 64.0486 147.394 64.3686C147.394 64.742 147.474 65.0653 147.634 65.3386C147.794 65.6053 148.057 65.7386 148.424 65.7386C148.584 65.7386 148.747 65.702 148.914 65.6286C149.081 65.5553 149.231 65.452 149.364 65.3186C149.511 65.1786 149.641 65.012 149.754 64.8186L149.934 64.9486C149.787 65.2353 149.574 65.482 149.294 65.6886C149.021 65.8886 148.674 65.9886 148.254 65.9886ZM152.599 65.9886C152.245 65.9886 151.949 65.9153 151.709 65.7686C151.469 65.6153 151.289 65.4153 151.169 65.1686C151.055 64.9153 150.999 64.6453 150.999 64.3586C150.999 63.9586 151.072 63.5786 151.219 63.2186C151.372 62.852 151.579 62.5253 151.839 62.2386C152.105 61.952 152.409 61.7253 152.749 61.5586C153.089 61.392 153.445 61.3086 153.819 61.3086C154.179 61.3086 154.479 61.3853 154.719 61.5386C154.959 61.6853 155.135 61.8786 155.249 62.1186C155.369 62.3586 155.429 62.622 155.429 62.9086C155.429 63.3086 155.352 63.6953 155.199 64.0686C155.052 64.4353 154.845 64.7653 154.579 65.0586C154.319 65.3453 154.019 65.572 153.679 65.7386C153.339 65.9053 152.979 65.9886 152.599 65.9886ZM152.589 65.7686C152.835 65.7686 153.065 65.6986 153.279 65.5586C153.492 65.412 153.685 65.222 153.859 64.9886C154.039 64.7553 154.192 64.4986 154.319 64.2186C154.445 63.9386 154.542 63.662 154.609 63.3886C154.682 63.1086 154.719 62.8553 154.719 62.6286C154.719 61.8953 154.425 61.5286 153.839 61.5286C153.592 61.5286 153.362 61.5986 153.149 61.7386C152.935 61.8786 152.739 62.0653 152.559 62.2986C152.385 62.532 152.235 62.7886 152.109 63.0686C151.982 63.342 151.882 63.6153 151.809 63.8886C151.742 64.162 151.709 64.412 151.709 64.6386C151.709 65.392 152.002 65.7686 152.589 65.7686ZM154.776 68.7486C154.369 68.7486 154.082 68.6753 153.916 68.5286C153.749 68.382 153.666 68.2253 153.666 68.0586C153.666 67.9253 153.712 67.812 153.806 67.7186C153.899 67.632 154.016 67.5886 154.156 67.5886C154.302 67.5886 154.409 67.6353 154.476 67.7286C154.536 67.822 154.582 67.932 154.616 68.0586C154.642 68.1853 154.679 68.2953 154.726 68.3886C154.772 68.482 154.849 68.5286 154.956 68.5286C155.129 68.5286 155.292 68.402 155.446 68.1486C155.599 67.902 155.749 67.572 155.896 67.1586L157.696 61.6886H156.716L156.786 61.4486H157.776L158.036 60.6486C158.196 60.1953 158.369 59.8186 158.556 59.5186C158.749 59.212 158.979 58.9853 159.246 58.8386C159.519 58.6853 159.859 58.6086 160.266 58.6086C160.506 58.6086 160.762 58.6386 161.036 58.6986C161.309 58.752 161.549 58.8686 161.756 59.0486C161.922 58.8953 162.109 58.7853 162.316 58.7186C162.522 58.6453 162.739 58.6086 162.966 58.6086C163.272 58.6086 163.506 58.6486 163.666 58.7286C163.826 58.8086 163.936 58.9053 163.996 59.0186C164.056 59.132 164.086 59.242 164.086 59.3486C164.086 59.482 164.042 59.6053 163.956 59.7186C163.876 59.8253 163.759 59.8786 163.606 59.8786C163.459 59.8786 163.356 59.832 163.296 59.7386C163.242 59.6453 163.216 59.5253 163.216 59.3786C163.216 59.172 163.189 59.0286 163.136 58.9486C163.089 58.8686 163.006 58.8286 162.886 58.8286C162.719 58.8286 162.556 58.8986 162.396 59.0386C162.236 59.1786 162.109 59.3986 162.016 59.6986L161.436 61.4486H162.526L162.456 61.6886H161.356L159.676 66.7486C159.449 67.422 159.162 67.922 158.816 68.2486C158.476 68.582 157.996 68.7486 157.376 68.7486C157.062 68.7486 156.796 68.682 156.576 68.5486C156.356 68.422 156.219 68.2653 156.166 68.0786C155.986 68.3386 155.786 68.5153 155.566 68.6086C155.339 68.702 155.076 68.7486 154.776 68.7486ZM158.676 60.8086L158.466 61.4486H160.716L161.236 59.8886L161.246 59.8686C161.192 59.6086 161.079 59.3753 160.906 59.1686C160.732 58.962 160.492 58.8586 160.186 58.8586C159.912 58.8586 159.682 58.9586 159.496 59.1586C159.309 59.352 159.152 59.5986 159.026 59.8986C158.899 60.192 158.782 60.4953 158.676 60.8086ZM158.996 66.5886L160.636 61.6886H158.386L156.616 67.1586L156.606 67.1986C156.686 67.5853 156.796 67.8986 156.936 68.1386C157.076 68.3786 157.289 68.4986 157.576 68.4986C157.822 68.4986 158.032 68.4053 158.206 68.2186C158.379 68.032 158.529 67.792 158.656 67.4986C158.782 67.2053 158.896 66.902 158.996 66.5886ZM163.993 65.9886C163.64 65.9886 163.35 65.912 163.123 65.7586C162.903 65.5986 162.74 65.392 162.633 65.1386C162.533 64.8786 162.483 64.602 162.483 64.3086C162.483 63.8953 162.563 63.512 162.723 63.1586C162.883 62.7986 163.097 62.482 163.363 62.2086C163.63 61.9286 163.92 61.712 164.233 61.5586C164.553 61.4053 164.873 61.3286 165.193 61.3286C165.507 61.3286 165.753 61.4086 165.933 61.5686C166.12 61.722 166.213 61.9286 166.213 62.1886C166.207 62.582 166.02 62.892 165.653 63.1186C165.293 63.3386 164.807 63.482 164.193 63.5486L163.353 63.6286C163.273 63.9353 163.233 64.2286 163.233 64.5086C163.233 64.702 163.26 64.892 163.313 65.0786C163.373 65.2653 163.47 65.422 163.603 65.5486C163.737 65.6686 163.91 65.7286 164.123 65.7286C164.383 65.7286 164.62 65.6453 164.833 65.4786C165.053 65.3053 165.227 65.1286 165.353 64.9486L165.523 65.0886C165.37 65.302 165.17 65.5053 164.923 65.6986C164.677 65.892 164.367 65.9886 163.993 65.9886ZM165.183 61.5286C164.963 61.5286 164.74 61.6153 164.513 61.7886C164.287 61.962 164.077 62.192 163.883 62.4786C163.69 62.7653 163.537 63.0786 163.423 63.4186L163.983 63.3386C164.337 63.2853 164.62 63.2053 164.833 63.0986C165.053 62.992 165.22 62.872 165.333 62.7386C165.447 62.6053 165.523 62.4786 165.563 62.3586C165.603 62.232 165.623 62.1253 165.623 62.0386C165.623 61.8853 165.59 61.762 165.523 61.6686C165.457 61.5753 165.343 61.5286 165.183 61.5286ZM168.173 65.9886C167.82 65.9886 167.53 65.912 167.303 65.7586C167.083 65.5986 166.92 65.392 166.813 65.1386C166.713 64.8786 166.663 64.602 166.663 64.3086C166.663 63.8953 166.743 63.512 166.903 63.1586C167.063 62.7986 167.276 62.482 167.543 62.2086C167.81 61.9286 168.1 61.712 168.413 61.5586C168.733 61.4053 169.053 61.3286 169.373 61.3286C169.686 61.3286 169.933 61.4086 170.113 61.5686C170.3 61.722 170.393 61.9286 170.393 62.1886C170.386 62.582 170.2 62.892 169.833 63.1186C169.473 63.3386 168.986 63.482 168.373 63.5486L167.533 63.6286C167.453 63.9353 167.413 64.2286 167.413 64.5086C167.413 64.702 167.44 64.892 167.493 65.0786C167.553 65.2653 167.65 65.422 167.783 65.5486C167.916 65.6686 168.09 65.7286 168.303 65.7286C168.563 65.7286 168.8 65.6453 169.013 65.4786C169.233 65.3053 169.406 65.1286 169.533 64.9486L169.703 65.0886C169.55 65.302 169.35 65.5053 169.103 65.6986C168.856 65.892 168.546 65.9886 168.173 65.9886ZM169.363 61.5286C169.143 61.5286 168.92 61.6153 168.693 61.7886C168.466 61.962 168.256 62.192 168.063 62.4786C167.87 62.7653 167.716 63.0786 167.603 63.4186L168.163 63.3386C168.516 63.2853 168.8 63.2053 169.013 63.0986C169.233 62.992 169.4 62.872 169.513 62.7386C169.626 62.6053 169.703 62.4786 169.743 62.3586C169.783 62.232 169.803 62.1253 169.803 62.0386C169.803 61.8853 169.77 61.762 169.703 61.6686C169.636 61.5753 169.523 61.5286 169.363 61.5286Z" fill="#ffdaa1"/>
</svg>
