<svg width="4051" height="1296" viewBox="0 0 4051 1296" fill="none" xmlns="http://www.w3.org/2000/svg">
<path fill-rule="evenodd" clip-rule="evenodd" d="M0 1145.6L12.8 1105.6L46.4 1102.4C84.8 1098.13 114.667 1093.33 136 1088C158.4 1082.67 175.467 1074.67 187.2 1064C198.933 1052.27 208.533 1035.2 216 1012.8L223.843 988.965C211.81 983.186 200.179 976.731 188.952 969.6C130.551 932 85.3515 880.4 53.3515 814.8C22.1515 748.4 6.5515 672.4 6.5515 586.8C6.5515 522.8 16.9515 464 37.7515 410.4C58.5515 356.8 87.3515 310 124.152 270C160.952 230 203.352 199.2 251.352 177.6C300.152 155.2 352.152 144 407.352 144C442.46 144 473.014 146.898 499.012 152.695L502.4 142.4C508.8 124.267 512 109.867 512 99.2001C512 80.0001 502.933 67.2001 484.8 60.8001C466.667 53.3334 435.733 47.4667 392 43.2L361.6 40.0001L374.4 0L612.8 4.80003L851.2 0L838.4 40.0001L804.8 43.2C766.4 46.4 734.933 53.3334 710.4 64C685.867 74.6667 665.6 92.2667 649.6 116.8C637.002 136.117 624.735 162.046 612.799 194.588C618.161 197.048 623.279 199.385 628.152 201.6C636.952 204.8 642.952 206.4 646.152 206.4C654.952 206.4 662.151 203.2 667.752 196.8C673.352 189.6 676.952 177.6 678.552 160.8H708.552L706.152 301.2L708.552 441.6H678.552C666.721 359.572 638.559 295.817 594.068 250.338L387.2 883.2C377.6 912 369.6 937.6 363.2 960C360.96 969.41 359.19 978.255 357.89 986.536C374.567 988.845 392.254 990 410.952 990C462.952 990 508.152 978 546.552 954C584.952 930 615.752 898 638.952 858C662.952 818 677.352 774 682.151 726H710.952L708.552 872.4L712.152 1012.8H683.352L679.752 999.6C676.552 989.2 672.552 979.6 667.752 970.8C663.752 961.2 656.552 956.4 646.152 956.4C640.552 956.4 633.752 958 625.752 961.2C618.552 964.4 610.151 968.4 600.552 973.2C579.752 983.6 552.552 995.2 518.952 1008C485.352 1020 445.752 1026 400.152 1026C384.831 1026 369.906 1025.34 355.375 1024.01C356.912 1051.65 368.587 1071.91 390.4 1084.8C413.867 1097.6 454.933 1104 513.6 1104H633.6C725.333 1104 800.533 1078.4 859.2 1027.2C917.867 976 965.867 901.867 1003.2 804.8H1044.8L920 1145.6L224 1140.8L0 1145.6ZM487.057 189.029L240.329 938.86C201.498 906.264 173.172 860.91 155.352 802.8C137.751 742.8 128.952 670.8 128.952 586.8C128.952 530.8 133.752 478.4 143.352 429.6C153.752 380 169.752 336.8 191.352 300C212.952 262.4 241.752 233.2 277.752 212.4C313.751 190.8 358.152 180 410.952 180C438.274 180 463.642 183.01 487.057 189.029ZM1114.5 1116.4C1128.1 1125.6 1145.5 1130.2 1166.7 1130.2C1189.1 1130.2 1207.7 1124.4 1222.5 1112.8C1237.3 1101.2 1249.3 1089 1258.5 1076.2L1248.3 1067.8C1240.7 1078.6 1230.3 1089.2 1217.1 1099.6C1204.3 1109.6 1190.1 1114.6 1174.5 1114.6C1161.7 1114.6 1151.3 1111 1143.3 1103.8C1135.3 1096.2 1129.5 1086.8 1125.9 1075.6C1122.7 1064.4 1121.1 1053 1121.1 1041.4C1121.1 1024.6 1123.5 1007 1128.3 988.6L1178.7 983.8C1215.5 979.8 1244.7 971.2 1266.3 958C1288.3 944.4 1299.5 925.8 1299.9 902.2C1299.9 886.6 1294.3 874.2 1283.1 865C1272.3 855.4 1257.5 850.6 1238.7 850.6C1219.5 850.6 1200.3 855.2 1181.1 864.4C1162.3 873.6 1144.9 886.6 1128.9 903.4C1112.9 919.8 1100.1 938.8 1090.5 960.4C1080.9 981.6 1076.1 1004.6 1076.1 1029.4C1076.1 1047 1079.1 1063.6 1085.1 1079.2C1091.5 1094.4 1101.3 1106.8 1114.5 1116.4ZM1197.9 878.2C1211.5 867.8 1224.9 862.6 1238.1 862.6C1247.7 862.6 1254.5 865.4 1258.5 871C1262.5 876.6 1264.5 884 1264.5 893.2C1264.5 898.4 1263.3 904.8 1260.9 912.4C1258.5 919.6 1253.9 927.2 1247.1 935.2C1240.3 943.2 1230.3 950.4 1217.1 956.8C1204.3 963.2 1187.3 968 1166.1 971.2L1132.5 976C1139.3 955.6 1148.5 936.8 1160.1 919.6C1171.7 902.4 1184.3 888.6 1197.9 878.2ZM1368.88 1117C1383.28 1125.8 1401.08 1130.2 1422.28 1130.2C1445.08 1130.2 1466.68 1125.2 1487.08 1115.2C1507.48 1105.2 1525.48 1091.6 1541.08 1074.4C1557.08 1056.8 1569.48 1037 1578.28 1015C1587.48 992.6 1592.08 969.4 1592.08 945.4C1592.08 928.2 1588.48 912.4 1581.28 898C1574.48 883.6 1563.88 872 1549.48 863.2C1535.08 854 1517.08 849.4 1495.48 849.4C1473.08 849.4 1451.68 854.4 1431.28 864.4C1410.88 874.4 1392.68 888 1376.68 905.2C1361.08 922.4 1348.68 942 1339.48 964C1330.68 985.6 1326.28 1008.4 1326.28 1032.4C1326.28 1049.6 1329.68 1065.8 1336.48 1081C1343.68 1095.8 1354.48 1107.8 1368.88 1117ZM1463.08 1104.4C1450.28 1112.8 1436.48 1117 1421.68 1117C1386.48 1117 1368.88 1094.4 1368.88 1049.2C1368.88 1035.6 1370.88 1020.6 1374.88 1004.2C1379.28 987.8 1385.28 971.4 1392.88 955C1400.48 938.2 1409.48 922.8 1419.88 908.8C1430.68 894.8 1442.48 883.6 1455.28 875.2C1468.08 866.8 1481.88 862.6 1496.68 862.6C1531.88 862.6 1549.48 884.6 1549.48 928.6C1549.48 942.2 1547.28 957.4 1542.88 974.2C1538.88 990.6 1533.08 1007.2 1525.48 1024C1517.88 1040.8 1508.68 1056.2 1497.88 1070.2C1487.48 1084.2 1475.88 1095.6 1463.08 1104.4ZM1803.69 1121.2C1808.89 1127.2 1817.69 1130.2 1830.09 1130.2C1847.29 1130.2 1861.89 1124.8 1873.89 1114C1885.89 1102.8 1895.69 1091 1903.29 1078.6L1892.49 1071.4C1887.29 1080.2 1880.69 1089 1872.69 1097.8C1865.09 1106.2 1856.69 1110.4 1847.49 1110.4C1840.69 1110.4 1837.29 1106.4 1837.29 1098.4C1837.69 1090.4 1839.29 1082.2 1842.09 1073.8L1896.09 923.2C1904.49 899.6 1905.09 881.4 1897.89 868.6C1890.69 855.8 1874.89 849.4 1850.49 849.4C1834.09 849.4 1818.69 852.8 1804.29 859.6C1790.29 866.4 1777.29 875.2 1765.29 886C1753.69 896.4 1743.49 907.8 1734.69 920.2L1753.89 856L1665.69 857.8L1660.89 872.2C1679.69 872.2 1691.89 874.6 1697.49 879.4C1703.09 883.8 1702.49 895.8 1695.69 915.4L1621.29 1121.8H1664.49L1720.29 967.6C1724.29 956.8 1730.49 945.4 1738.89 933.4C1747.29 921.4 1757.09 910.2 1768.29 899.8C1779.49 889.4 1791.09 881 1803.09 874.6C1815.09 867.8 1826.49 864.4 1837.29 864.4C1848.89 864.4 1856.29 868.6 1859.49 877C1862.69 885 1862.09 895.4 1857.69 908.2L1805.49 1055.8C1802.69 1063.4 1800.49 1070.8 1798.89 1078C1797.29 1085.2 1796.49 1091.8 1796.49 1097.8C1796.49 1107.4 1798.89 1115.2 1803.69 1121.2ZM1998.43 671.8C1994.72 671.995 1992.67 672.093 1992.28 672.093C1992.28 686.742 1991.3 701.097 1989.35 715.159C1987.59 729.222 1984.96 742.308 1981.44 754.417C1978.12 766.527 1974.21 777.171 1969.72 786.351C1965.23 795.335 1960.35 802.171 1955.07 806.859L1955.37 811.546C1958.1 815.257 1961.52 818.284 1965.62 820.628C1969.72 822.777 1973.73 824.632 1977.63 826.195C1982.12 827.757 1986.71 829.027 1991.4 830.003C2003.71 822.191 2014.55 811.644 2023.92 798.363C2028.02 792.699 2031.93 786.156 2035.64 778.734C2039.55 771.312 2042.96 763.011 2045.89 753.831C2049.02 744.456 2051.46 734.202 2053.22 723.07C2055.17 711.742 2056.15 699.339 2056.15 685.863C2054.78 682.738 2052.44 680.296 2049.12 678.538C2045.99 676.585 2042.38 675.12 2038.28 674.144C2034.17 672.972 2029.78 672.191 2025.09 671.8C2020.41 671.409 2016.01 671.214 2011.91 671.214C2006.64 671.214 2002.14 671.409 1998.43 671.8ZM2109.35 1119.4C2121.35 1126.6 2137.75 1130.2 2158.55 1130.2C2176.95 1130.2 2193.15 1126.2 2207.15 1118.2C2221.15 1109.8 2232.15 1099.4 2240.15 1087C2248.15 1074.2 2252.15 1061 2252.15 1047.4C2252.15 1030.2 2248.35 1016.4 2240.75 1006C2233.15 995.6 2225.55 986.6 2217.95 979L2195.15 955C2187.95 947 2182.75 939.2 2179.55 931.6C2176.35 923.6 2174.75 915.6 2174.75 907.6C2174.75 896 2178.75 885.6 2186.75 876.4C2195.15 867.2 2206.75 862.6 2221.55 862.6C2231.15 862.6 2237.55 864.8 2240.75 869.2C2243.95 873.2 2245.55 878.2 2245.55 884.2V899.2C2245.55 906.8 2247.75 912.4 2252.15 916C2256.95 919.6 2261.75 921.4 2266.55 921.4C2274.55 921.4 2280.95 918.8 2285.75 913.6C2290.55 908 2292.95 901.4 2292.95 893.8C2292.95 888.2 2290.95 882 2286.95 875.2C2283.35 868.4 2276.55 862.4 2266.55 857.2C2256.55 852 2241.75 849.4 2222.15 849.4C2203.75 849.4 2188.55 853.2 2176.55 860.8C2164.55 868.4 2155.55 878 2149.55 889.6C2143.55 901.2 2140.55 913.2 2140.55 925.6C2140.55 936.8 2142.75 948.2 2147.15 959.8C2151.55 971.4 2158.15 982 2166.95 991.6L2189.15 1015C2197.95 1025 2203.95 1033.4 2207.15 1040.2C2210.35 1047 2211.95 1055 2211.95 1064.2C2211.95 1072.2 2209.75 1080.4 2205.35 1088.8C2200.95 1096.8 2194.55 1103.6 2186.15 1109.2C2178.15 1114.4 2167.95 1117 2155.55 1117C2144.35 1117 2135.15 1114.4 2127.95 1109.2C2120.75 1103.6 2117.15 1096.8 2117.15 1088.8C2117.15 1082 2118.55 1076.2 2121.35 1071.4C2124.15 1066.6 2125.55 1061 2125.55 1054.6C2125.55 1048.6 2123.55 1043.6 2119.55 1039.6C2115.95 1035.6 2110.95 1033.6 2104.55 1033.6C2095.35 1033.6 2088.15 1036.8 2082.95 1043.2C2078.15 1049.2 2075.75 1056.8 2075.75 1066C2075.75 1074.4 2078.35 1083.6 2083.55 1093.6C2088.75 1103.6 2097.35 1112.2 2109.35 1119.4ZM2570.32 1114C2592.32 1123.6 2615.52 1128.4 2639.92 1128.4C2663.52 1128.4 2683.52 1125.6 2699.92 1120C2716.72 1114.4 2730.12 1109 2740.12 1103.8C2750.52 1098.2 2757.72 1095.4 2761.72 1095.4C2767.32 1095.4 2770.12 1099.6 2770.12 1108C2770.12 1110 2769.92 1112.2 2769.52 1114.6C2769.52 1117 2769.32 1119.4 2768.92 1121.8H2784.52L2801.32 1058.2L2831.32 973.6H2815.72C2808.52 991.6 2798.72 1008.8 2786.32 1025.2C2773.92 1041.6 2759.92 1056.2 2744.32 1069C2729.12 1081.4 2713.32 1091.4 2696.92 1099C2680.52 1106.2 2664.52 1109.8 2648.92 1109.8C2616.92 1109.8 2592.32 1097.4 2575.12 1072.6C2557.92 1047.4 2549.32 1014 2549.32 972.4C2549.32 945.2 2553.12 918.8 2560.72 893.2C2568.72 867.2 2579.52 843 2593.12 820.6C2606.72 797.8 2622.52 777.8 2640.52 760.6C2658.52 743.4 2677.72 730 2698.12 720.4C2718.52 710.4 2739.32 705.4 2760.52 705.4C2786.52 705.4 2807.72 713.4 2824.12 729.4C2840.52 745.4 2848.72 769.2 2848.72 800.8C2848.72 805.6 2848.52 810.4 2848.12 815.2C2847.72 820 2847.12 825.2 2846.32 830.8H2861.92L2882.92 765.4L2905.72 703.6H2890.12C2887.32 707.6 2883.72 712 2879.32 716.8C2874.92 721.6 2871.12 724 2867.92 724C2863.92 724 2859.12 722.2 2853.52 718.6C2847.92 715 2840.72 710.8 2831.92 706C2823.52 700.8 2813.12 696.4 2800.72 692.8C2788.32 689.2 2773.32 687.4 2755.72 687.4C2726.52 687.4 2698.72 693 2672.32 704.2C2646.32 715.4 2622.52 730.8 2600.92 750.4C2579.32 770 2560.72 792.6 2545.12 818.2C2529.52 843.4 2517.32 870.4 2508.52 899.2C2500.12 927.6 2495.92 956.2 2495.92 985C2495.92 1018.6 2502.72 1046 2516.32 1067.2C2530.32 1088.4 2548.32 1104 2570.32 1114ZM2929.23 1117C2943.63 1125.8 2961.43 1130.2 2982.63 1130.2C3005.43 1130.2 3027.03 1125.2 3047.43 1115.2C3067.83 1105.2 3085.83 1091.6 3101.43 1074.4C3117.43 1056.8 3129.83 1037 3138.63 1015C3147.83 992.6 3152.43 969.4 3152.43 945.4C3152.43 928.2 3148.83 912.4 3141.63 898C3134.83 883.6 3124.23 872 3109.83 863.2C3095.43 854 3077.43 849.4 3055.83 849.4C3033.43 849.4 3012.03 854.4 2991.63 864.4C2971.23 874.4 2953.03 888 2937.03 905.2C2921.43 922.4 2909.03 942 2899.83 964C2891.03 985.6 2886.63 1008.4 2886.63 1032.4C2886.63 1049.6 2890.03 1065.8 2896.83 1081C2904.03 1095.8 2914.83 1107.8 2929.23 1117ZM3023.43 1104.4C3010.63 1112.8 2996.83 1117 2982.03 1117C2946.83 1117 2929.23 1094.4 2929.23 1049.2C2929.23 1035.6 2931.23 1020.6 2935.23 1004.2C2939.63 987.8 2945.63 971.4 2953.23 955C2960.83 938.2 2969.83 922.8 2980.23 908.8C2991.03 894.8 3002.83 883.6 3015.63 875.2C3028.43 866.8 3042.23 862.6 3057.03 862.6C3092.23 862.6 3109.83 884.6 3109.83 928.6C3109.83 942.2 3107.63 957.4 3103.23 974.2C3099.23 990.6 3093.43 1007.2 3085.83 1024C3078.23 1040.8 3069.03 1056.2 3058.23 1070.2C3047.83 1084.2 3036.23 1095.6 3023.43 1104.4ZM3061.64 1282.6C3071.64 1291.4 3088.84 1295.8 3113.24 1295.8C3131.24 1295.8 3147.04 1293 3160.64 1287.4C3173.84 1281.8 3185.84 1271.2 3196.64 1255.6C3199.84 1266.8 3208.04 1276.2 3221.24 1283.8C3234.44 1291.8 3250.44 1295.8 3269.24 1295.8C3306.44 1295.8 3335.24 1285.8 3355.64 1265.8C3376.44 1246.2 3393.64 1216.2 3407.24 1175.8L3508.04 872.2H3574.04L3578.24 857.8H3512.84L3547.64 752.8C3553.24 734.8 3560.84 721.6 3570.44 713.2C3580.04 704.8 3589.84 700.6 3599.84 700.6C3607.04 700.6 3612.04 703 3614.84 707.8C3618.04 712.6 3619.64 721.2 3619.64 733.6C3619.64 742.4 3621.24 749.6 3624.44 755.2C3628.04 760.8 3634.24 763.6 3643.04 763.6C3652.24 763.6 3659.24 760.4 3664.04 754C3669.24 747.2 3671.84 739.8 3671.84 731.8C3671.84 725.4 3670.04 718.8 3666.44 712C3662.84 705.2 3656.24 699.4 3646.64 694.6C3637.04 689.8 3623.04 687.4 3604.64 687.4C3591.04 687.4 3578.04 689.6 3565.64 694C3553.24 698 3542.04 704.6 3532.04 713.8C3519.64 703 3505.24 696 3488.84 692.8C3472.44 689.2 3457.04 687.4 3442.64 687.4C3418.24 687.4 3397.84 692 3381.44 701.2C3365.44 710 3351.64 723.6 3340.04 742C3328.84 760 3318.44 782.6 3308.84 809.8L3293.24 857.8H3233.84L3229.64 872.2H3288.44L3180.44 1200.4C3171.64 1225.2 3162.64 1245 3153.44 1259.8C3144.24 1275 3134.44 1282.6 3124.04 1282.6C3117.64 1282.6 3113.04 1279.8 3110.24 1274.2C3107.44 1268.6 3105.24 1262 3103.64 1254.4C3101.64 1246.8 3098.84 1240.2 3095.24 1234.6C3091.24 1229 3084.84 1226.2 3076.04 1226.2C3067.64 1226.2 3060.64 1228.8 3055.04 1234C3049.44 1239.6 3046.64 1246.4 3046.64 1254.4C3046.64 1264.4 3051.64 1273.8 3061.64 1282.6ZM3334.64 857.8L3347.24 819.4C3353.64 800.6 3360.64 782.4 3368.24 764.8C3375.84 746.8 3385.24 732 3396.44 720.4C3407.64 708.4 3421.44 702.4 3437.84 702.4C3456.24 702.4 3470.64 708.6 3481.04 721C3491.44 733.4 3498.24 747.4 3501.44 763L3500.84 764.2L3469.64 857.8H3334.64ZM3464.84 872.2L3366.44 1166.2C3360.44 1185 3353.64 1203.2 3346.04 1220.8C3338.44 1238.4 3329.44 1252.8 3319.04 1264C3308.64 1275.2 3296.04 1280.8 3281.24 1280.8C3264.04 1280.8 3251.24 1273.6 3242.84 1259.2C3234.44 1244.8 3227.84 1226 3223.04 1202.8L3223.64 1200.4L3329.84 872.2H3464.84ZM3614.11 1116.4C3627.71 1125.6 3645.11 1130.2 3666.31 1130.2C3688.71 1130.2 3707.31 1124.4 3722.11 1112.8C3736.91 1101.2 3748.91 1089 3758.11 1076.2L3747.91 1067.8C3740.31 1078.6 3729.91 1089.2 3716.71 1099.6C3703.91 1109.6 3689.71 1114.6 3674.11 1114.6C3661.31 1114.6 3650.91 1111 3642.91 1103.8C3634.91 1096.2 3629.11 1086.8 3625.51 1075.6C3622.31 1064.4 3620.71 1053 3620.71 1041.4C3620.71 1024.6 3623.11 1007 3627.91 988.6L3678.31 983.8C3715.11 979.8 3744.31 971.2 3765.91 958C3787.91 944.4 3799.11 925.8 3799.51 902.2C3799.51 886.6 3793.91 874.2 3782.71 865C3771.91 855.4 3757.11 850.6 3738.31 850.6C3719.11 850.6 3699.91 855.2 3680.71 864.4C3661.91 873.6 3644.51 886.6 3628.51 903.4C3612.51 919.8 3599.71 938.8 3590.11 960.4C3580.51 981.6 3575.71 1004.6 3575.71 1029.4C3575.71 1047 3578.71 1063.6 3584.71 1079.2C3591.11 1094.4 3600.91 1106.8 3614.11 1116.4ZM3697.51 878.2C3711.11 867.8 3724.51 862.6 3737.71 862.6C3747.31 862.6 3754.11 865.4 3758.11 871C3762.11 876.6 3764.11 884 3764.11 893.2C3764.11 898.4 3762.91 904.8 3760.51 912.4C3758.11 919.6 3753.51 927.2 3746.71 935.2C3739.91 943.2 3729.91 950.4 3716.71 956.8C3703.91 963.2 3686.91 968 3665.71 971.2L3632.11 976C3638.91 955.6 3648.11 936.8 3659.71 919.6C3671.31 902.4 3683.91 888.6 3697.51 878.2ZM3864.89 1116.4C3878.49 1125.6 3895.89 1130.2 3917.09 1130.2C3939.49 1130.2 3958.09 1124.4 3972.89 1112.8C3987.69 1101.2 3999.69 1089 4008.89 1076.2L3998.69 1067.8C3991.09 1078.6 3980.69 1089.2 3967.49 1099.6C3954.69 1109.6 3940.49 1114.6 3924.89 1114.6C3912.09 1114.6 3901.69 1111 3893.69 1103.8C3885.69 1096.2 3879.89 1086.8 3876.29 1075.6C3873.09 1064.4 3871.49 1053 3871.49 1041.4C3871.49 1024.6 3873.89 1007 3878.69 988.6L3929.09 983.8C3965.89 979.8 3995.09 971.2 4016.69 958C4038.69 944.4 4049.89 925.8 4050.29 902.2C4050.29 886.6 4044.69 874.2 4033.49 865C4022.69 855.4 4007.89 850.6 3989.09 850.6C3969.89 850.6 3950.69 855.2 3931.49 864.4C3912.69 873.6 3895.29 886.6 3879.29 903.4C3863.29 919.8 3850.49 938.8 3840.89 960.4C3831.29 981.6 3826.49 1004.6 3826.49 1029.4C3826.49 1047 3829.49 1063.6 3835.49 1079.2C3841.89 1094.4 3851.69 1106.8 3864.89 1116.4ZM3948.29 878.2C3961.89 867.8 3975.29 862.6 3988.49 862.6C3998.09 862.6 4004.89 865.4 4008.89 871C4012.89 876.6 4014.89 884 4014.89 893.2C4014.89 898.4 4013.69 904.8 4011.29 912.4C4008.89 919.6 4004.29 927.2 3997.49 935.2C3990.69 943.2 3980.69 950.4 3967.49 956.8C3954.69 963.2 3937.69 968 3916.49 971.2L3882.89 976C3889.69 955.6 3898.89 936.8 3910.49 919.6C3922.09 902.4 3934.69 888.6 3948.29 878.2Z" fill="#ffdaa1"/>
</svg>
